M48
; DRILL file {KiCad 9.0.2} date 2025-05-21T10:53:04+0200
; FORMAT={-:-/ absolute / inch / decimal}
; #@! TF.CreationDate,2025-05-21T10:53:04+02:00
; #@! TF.GenerationSoftware,Kicad,Pcbnew,9.0.2
; #@! TF.FileFunction,Plated,1,2,PTH
FMAT,2
INCH
; #@! TA.AperFunction,Plated,PTH,ComponentDrill
T1C0.0362
; #@! TA.AperFunction,Plated,PTH,ViaDrill
T2C0.0394
; #@! TA.AperFunction,Plated,PTH,ComponentDrill
T3C0.0394
; #@! TA.AperFunction,Plated,PTH,ComponentDrill
T4C0.0787
; #@! TA.AperFunction,Plated,PTH,ComponentDrill
T5C0.0917
; #@! TA.AperFunction,Plated,PTH,ComponentDrill
T6C0.1772
%
G90
G05
T1
X5.9094Y-3.7392
X5.9094Y-3.8179
X6.0079Y-3.7392
X6.0079Y-3.8179
T2
X5.0394Y-3.4154
X5.1181Y-3.3698
X5.187Y-2.3622
X5.2178Y-3.3055
X5.2559Y-3.622
X5.2854Y-3.3268
X5.3346Y-2.3524
X5.3445Y-3.7992
X5.3571Y-3.3275
X5.4035Y-2.7657
X5.4232Y-2.3917
X5.4358Y-3.3009
X5.4724Y-3.7894
X5.4968Y-3.3475
X5.5967Y-3.2756
X5.603Y-3.3484
X5.6358Y-3.6909
X5.6358Y-3.7707
X5.7972Y-2.4606
X5.8957Y-2.687
X5.8957Y-2.8839
X5.9941Y-2.6772
X5.9941Y-2.8839
X6.5561Y-3.2795
X6.6014Y-3.2224
X6.752Y-3.5236
X6.752Y-3.7992
X6.7913Y-2.4606
X6.8701Y-2.9134
X7.0138Y-1.5492
X7.0276Y-2.6772
X7.126Y-2.6772
X7.4606Y-2.5197
X7.5Y-3.5236
X7.5787Y-3.563
X7.6575Y-3.6417
X7.7756Y-1.3386
X7.7756Y-2.8346
X8.248Y-1.2992
X8.3858Y-2.185
X8.4646Y-2.4606
T3
X5.0575Y-3.5728
X5.0575Y-3.7559
X5.1575Y-3.5728
X5.1575Y-3.7559
X5.2953Y-2.2539
X5.3953Y-2.2539
X5.4953Y-2.2539
X5.5953Y-2.2539
X6.9094Y-3.2252
X6.9094Y-3.3252
X6.9094Y-3.4252
X6.9094Y-3.5252
X6.9094Y-3.6252
X6.9094Y-3.7252
X7.1654Y-3.3346
X7.1654Y-3.4346
X7.1654Y-3.5346
X7.1654Y-3.6346
X7.3819Y-3.3346
X7.3819Y-3.4346
X7.3819Y-3.5346
X7.3819Y-3.6346
X7.7559Y-3.3362
X7.7559Y-3.4362
X7.7559Y-3.5362
X7.7559Y-3.6362
X7.8709Y-1.378
X7.9709Y-1.378
X8.0709Y-1.378
X8.3236Y-1.378
X8.4236Y-1.378
X8.5236Y-1.378
X8.6024Y-2.2425
X8.6024Y-2.3425
T5
X5.7217Y-3.9246
X6.1957Y-3.9246
T6
X5.6614Y-1.7323
X5.9449Y-1.7323
X7.1969Y-1.7323
X7.4803Y-1.7323
X7.9291Y-1.7323
X8.2126Y-1.7323
T4
G00X6.2697Y-1.626
M15
G01X6.3287Y-1.626
M16
G05
G00X6.2697Y-1.9252
M15
G01X6.3287Y-1.9252
M16
G05
G00X6.2713Y-2.2283
M15
G01X6.3303Y-2.2283
M16
G05
G00X6.5846Y-1.626
M15
G01X6.6437Y-1.626
M16
G05
G00X6.5846Y-1.9252
M15
G01X6.6437Y-1.9252
M16
G05
G00X6.5862Y-2.2283
M15
G01X6.6453Y-2.2283
M16
G05
M30
