%TF.GenerationSoftware,KiCad,Pcbnew,9.0.2*%
%TF.CreationDate,2025-05-21T10:53:00+02:00*%
%TF.ProjectId,OpenMoverPlatform,4f70656e-4d6f-4766-9572-506c6174666f,rev?*%
%TF.SameCoordinates,Original*%
%TF.FileFunction,Other,User*%
%FSLAX46Y46*%
G04 Gerber Fmt 4.6, Leading zero omitted, Abs format (unit mm)*
G04 Created by KiCad (PCBNEW 9.0.2) date 2025-05-21 10:53:00*
%MOMM*%
%LPD*%
G01*
G04 APERTURE LIST*
%ADD10C,0.150000*%
G04 APERTURE END LIST*
D10*
X136586779Y-87736065D02*
X136920112Y-87736065D01*
X137062969Y-88259875D02*
X136586779Y-88259875D01*
X136586779Y-88259875D02*
X136586779Y-87259875D01*
X136586779Y-87259875D02*
X137062969Y-87259875D01*
X137491541Y-88259875D02*
X137491541Y-87259875D01*
X137491541Y-87259875D02*
X138062969Y-88259875D01*
X138062969Y-88259875D02*
X138062969Y-87259875D01*
X136586779Y-89869819D02*
X136586779Y-88869819D01*
X137253445Y-88869819D02*
X137443921Y-88869819D01*
X137443921Y-88869819D02*
X137539159Y-88917438D01*
X137539159Y-88917438D02*
X137634397Y-89012676D01*
X137634397Y-89012676D02*
X137682016Y-89203152D01*
X137682016Y-89203152D02*
X137682016Y-89536485D01*
X137682016Y-89536485D02*
X137634397Y-89726961D01*
X137634397Y-89726961D02*
X137539159Y-89822200D01*
X137539159Y-89822200D02*
X137443921Y-89869819D01*
X137443921Y-89869819D02*
X137253445Y-89869819D01*
X137253445Y-89869819D02*
X137158207Y-89822200D01*
X137158207Y-89822200D02*
X137062969Y-89726961D01*
X137062969Y-89726961D02*
X137015350Y-89536485D01*
X137015350Y-89536485D02*
X137015350Y-89203152D01*
X137015350Y-89203152D02*
X137062969Y-89012676D01*
X137062969Y-89012676D02*
X137158207Y-88917438D01*
X137158207Y-88917438D02*
X137253445Y-88869819D01*
X138301064Y-88869819D02*
X138396302Y-88869819D01*
X138396302Y-88869819D02*
X138491540Y-88917438D01*
X138491540Y-88917438D02*
X138539159Y-88965057D01*
X138539159Y-88965057D02*
X138586778Y-89060295D01*
X138586778Y-89060295D02*
X138634397Y-89250771D01*
X138634397Y-89250771D02*
X138634397Y-89488866D01*
X138634397Y-89488866D02*
X138586778Y-89679342D01*
X138586778Y-89679342D02*
X138539159Y-89774580D01*
X138539159Y-89774580D02*
X138491540Y-89822200D01*
X138491540Y-89822200D02*
X138396302Y-89869819D01*
X138396302Y-89869819D02*
X138301064Y-89869819D01*
X138301064Y-89869819D02*
X138205826Y-89822200D01*
X138205826Y-89822200D02*
X138158207Y-89774580D01*
X138158207Y-89774580D02*
X138110588Y-89679342D01*
X138110588Y-89679342D02*
X138062969Y-89488866D01*
X138062969Y-89488866D02*
X138062969Y-89250771D01*
X138062969Y-89250771D02*
X138110588Y-89060295D01*
X138110588Y-89060295D02*
X138158207Y-88965057D01*
X138158207Y-88965057D02*
X138205826Y-88917438D01*
X138205826Y-88917438D02*
X138301064Y-88869819D01*
X200658460Y-81912808D02*
X200793147Y-81778121D01*
X200793147Y-81778121D02*
X200894162Y-81744449D01*
X200894162Y-81744449D02*
X201028849Y-81744449D01*
X201028849Y-81744449D02*
X201197208Y-81845464D01*
X201197208Y-81845464D02*
X201432910Y-82081167D01*
X201432910Y-82081167D02*
X201533925Y-82249526D01*
X201533925Y-82249526D02*
X201533925Y-82384213D01*
X201533925Y-82384213D02*
X201500254Y-82485228D01*
X201500254Y-82485228D02*
X201365567Y-82619915D01*
X201365567Y-82619915D02*
X201264551Y-82653587D01*
X201264551Y-82653587D02*
X201129864Y-82653587D01*
X201129864Y-82653587D02*
X200961506Y-82552571D01*
X200961506Y-82552571D02*
X200725803Y-82316869D01*
X200725803Y-82316869D02*
X200624788Y-82148510D01*
X200624788Y-82148510D02*
X200624788Y-82013823D01*
X200624788Y-82013823D02*
X200658460Y-81912808D01*
X201500254Y-81542419D02*
X202207360Y-82249526D01*
X201533925Y-81576091D02*
X201567597Y-81475075D01*
X201567597Y-81475075D02*
X201702284Y-81340388D01*
X201702284Y-81340388D02*
X201803299Y-81306717D01*
X201803299Y-81306717D02*
X201870643Y-81306717D01*
X201870643Y-81306717D02*
X201971658Y-81340388D01*
X201971658Y-81340388D02*
X202173689Y-81542419D01*
X202173689Y-81542419D02*
X202207360Y-81643434D01*
X202207360Y-81643434D02*
X202207360Y-81710778D01*
X202207360Y-81710778D02*
X202173689Y-81811793D01*
X202173689Y-81811793D02*
X202039002Y-81946480D01*
X202039002Y-81946480D02*
X201937986Y-81980152D01*
X202847124Y-81071014D02*
X202813452Y-81172029D01*
X202813452Y-81172029D02*
X202678765Y-81306716D01*
X202678765Y-81306716D02*
X202577750Y-81340388D01*
X202577750Y-81340388D02*
X202476734Y-81306716D01*
X202476734Y-81306716D02*
X202207360Y-81037342D01*
X202207360Y-81037342D02*
X202173689Y-80936327D01*
X202173689Y-80936327D02*
X202207360Y-80835312D01*
X202207360Y-80835312D02*
X202342047Y-80700625D01*
X202342047Y-80700625D02*
X202443063Y-80666953D01*
X202443063Y-80666953D02*
X202544078Y-80700625D01*
X202544078Y-80700625D02*
X202611421Y-80767968D01*
X202611421Y-80767968D02*
X202342047Y-81172029D01*
X202746109Y-80296564D02*
X203217513Y-80767968D01*
X202813452Y-80363907D02*
X202813452Y-80296564D01*
X202813452Y-80296564D02*
X202847124Y-80195549D01*
X202847124Y-80195549D02*
X202948139Y-80094533D01*
X202948139Y-80094533D02*
X203049154Y-80060862D01*
X203049154Y-80060862D02*
X203150170Y-80094533D01*
X203150170Y-80094533D02*
X203520559Y-80464923D01*
X203857276Y-80128205D02*
X203150170Y-79421098D01*
X203150170Y-79421098D02*
X203890948Y-79690472D01*
X203890948Y-79690472D02*
X203621574Y-78949694D01*
X203621574Y-78949694D02*
X204328681Y-79656800D01*
X204766414Y-79219068D02*
X204665398Y-79252740D01*
X204665398Y-79252740D02*
X204598055Y-79252740D01*
X204598055Y-79252740D02*
X204497040Y-79219068D01*
X204497040Y-79219068D02*
X204295009Y-79017037D01*
X204295009Y-79017037D02*
X204261337Y-78916022D01*
X204261337Y-78916022D02*
X204261337Y-78848679D01*
X204261337Y-78848679D02*
X204295009Y-78747663D01*
X204295009Y-78747663D02*
X204396024Y-78646648D01*
X204396024Y-78646648D02*
X204497040Y-78612976D01*
X204497040Y-78612976D02*
X204564383Y-78612976D01*
X204564383Y-78612976D02*
X204665398Y-78646648D01*
X204665398Y-78646648D02*
X204867429Y-78848679D01*
X204867429Y-78848679D02*
X204901101Y-78949694D01*
X204901101Y-78949694D02*
X204901101Y-79017037D01*
X204901101Y-79017037D02*
X204867429Y-79118053D01*
X204867429Y-79118053D02*
X204766414Y-79219068D01*
X204766414Y-78276259D02*
X205406177Y-78579304D01*
X205406177Y-78579304D02*
X205103131Y-77939541D01*
X206079612Y-77838526D02*
X206045940Y-77939541D01*
X206045940Y-77939541D02*
X205911253Y-78074228D01*
X205911253Y-78074228D02*
X205810238Y-78107900D01*
X205810238Y-78107900D02*
X205709223Y-78074228D01*
X205709223Y-78074228D02*
X205439849Y-77804854D01*
X205439849Y-77804854D02*
X205406177Y-77703839D01*
X205406177Y-77703839D02*
X205439849Y-77602823D01*
X205439849Y-77602823D02*
X205574536Y-77468136D01*
X205574536Y-77468136D02*
X205675551Y-77434465D01*
X205675551Y-77434465D02*
X205776566Y-77468136D01*
X205776566Y-77468136D02*
X205843910Y-77535480D01*
X205843910Y-77535480D02*
X205574536Y-77939541D01*
X206450001Y-77535480D02*
X205978597Y-77064075D01*
X206113284Y-77198762D02*
X206079612Y-77097747D01*
X206079612Y-77097747D02*
X206079612Y-77030404D01*
X206079612Y-77030404D02*
X206113284Y-76929388D01*
X206113284Y-76929388D02*
X206180627Y-76862045D01*
X206887735Y-77097747D02*
X206180628Y-76390640D01*
X206180628Y-76390640D02*
X206450002Y-76121266D01*
X206450002Y-76121266D02*
X206551017Y-76087594D01*
X206551017Y-76087594D02*
X206618360Y-76087594D01*
X206618360Y-76087594D02*
X206719376Y-76121266D01*
X206719376Y-76121266D02*
X206820391Y-76222281D01*
X206820391Y-76222281D02*
X206854063Y-76323297D01*
X206854063Y-76323297D02*
X206854063Y-76390640D01*
X206854063Y-76390640D02*
X206820391Y-76491655D01*
X206820391Y-76491655D02*
X206551017Y-76761029D01*
X207695857Y-76289625D02*
X207594841Y-76323297D01*
X207594841Y-76323297D02*
X207493826Y-76289625D01*
X207493826Y-76289625D02*
X206887735Y-75683533D01*
X208268277Y-75717205D02*
X207897887Y-75346815D01*
X207897887Y-75346815D02*
X207796872Y-75313144D01*
X207796872Y-75313144D02*
X207695857Y-75346815D01*
X207695857Y-75346815D02*
X207561170Y-75481502D01*
X207561170Y-75481502D02*
X207527498Y-75582518D01*
X208234605Y-75683533D02*
X208200933Y-75784548D01*
X208200933Y-75784548D02*
X208032574Y-75952907D01*
X208032574Y-75952907D02*
X207931559Y-75986579D01*
X207931559Y-75986579D02*
X207830544Y-75952907D01*
X207830544Y-75952907D02*
X207763200Y-75885563D01*
X207763200Y-75885563D02*
X207729529Y-75784548D01*
X207729529Y-75784548D02*
X207763200Y-75683533D01*
X207763200Y-75683533D02*
X207931559Y-75515174D01*
X207931559Y-75515174D02*
X207965231Y-75414159D01*
X208032574Y-75010098D02*
X208301948Y-74740724D01*
X207897887Y-74673380D02*
X208503979Y-75279472D01*
X208503979Y-75279472D02*
X208604994Y-75313144D01*
X208604994Y-75313144D02*
X208706009Y-75279472D01*
X208706009Y-75279472D02*
X208773353Y-75212128D01*
X208436636Y-74606037D02*
X208706010Y-74336662D01*
X209009056Y-74976426D02*
X208402964Y-74370334D01*
X208402964Y-74370334D02*
X208369292Y-74269319D01*
X208369292Y-74269319D02*
X208402964Y-74168304D01*
X208402964Y-74168304D02*
X208470308Y-74100960D01*
X209514132Y-74471349D02*
X209413117Y-74505021D01*
X209413117Y-74505021D02*
X209345773Y-74505021D01*
X209345773Y-74505021D02*
X209244758Y-74471349D01*
X209244758Y-74471349D02*
X209042728Y-74269319D01*
X209042728Y-74269319D02*
X209009056Y-74168303D01*
X209009056Y-74168303D02*
X209009056Y-74100960D01*
X209009056Y-74100960D02*
X209042728Y-73999945D01*
X209042728Y-73999945D02*
X209143743Y-73898929D01*
X209143743Y-73898929D02*
X209244758Y-73865258D01*
X209244758Y-73865258D02*
X209312102Y-73865258D01*
X209312102Y-73865258D02*
X209413117Y-73898929D01*
X209413117Y-73898929D02*
X209615147Y-74100960D01*
X209615147Y-74100960D02*
X209648819Y-74201975D01*
X209648819Y-74201975D02*
X209648819Y-74269319D01*
X209648819Y-74269319D02*
X209615147Y-74370334D01*
X209615147Y-74370334D02*
X209514132Y-74471349D01*
X210052880Y-73932601D02*
X209581476Y-73461197D01*
X209716163Y-73595884D02*
X209682491Y-73494868D01*
X209682491Y-73494868D02*
X209682491Y-73427525D01*
X209682491Y-73427525D02*
X209716163Y-73326510D01*
X209716163Y-73326510D02*
X209783506Y-73259166D01*
X210490613Y-73494868D02*
X210019209Y-73023464D01*
X210086552Y-73090807D02*
X210086552Y-73023464D01*
X210086552Y-73023464D02*
X210120224Y-72922448D01*
X210120224Y-72922448D02*
X210221239Y-72821433D01*
X210221239Y-72821433D02*
X210322255Y-72787761D01*
X210322255Y-72787761D02*
X210423270Y-72821433D01*
X210423270Y-72821433D02*
X210793659Y-73191822D01*
X210423270Y-72821433D02*
X210389598Y-72720418D01*
X210389598Y-72720418D02*
X210423270Y-72619403D01*
X210423270Y-72619403D02*
X210524285Y-72518387D01*
X210524285Y-72518387D02*
X210625300Y-72484716D01*
X210625300Y-72484716D02*
X210726316Y-72518387D01*
X210726316Y-72518387D02*
X211096705Y-72888777D01*
X202705999Y-83421599D02*
X202705999Y-83488943D01*
X202705999Y-83488943D02*
X202638656Y-83623630D01*
X202638656Y-83623630D02*
X202571312Y-83690973D01*
X202571312Y-83690973D02*
X202436625Y-83758317D01*
X202436625Y-83758317D02*
X202301938Y-83758317D01*
X202301938Y-83758317D02*
X202200923Y-83724645D01*
X202200923Y-83724645D02*
X202032564Y-83623630D01*
X202032564Y-83623630D02*
X201931549Y-83522615D01*
X201931549Y-83522615D02*
X201830534Y-83354256D01*
X201830534Y-83354256D02*
X201796862Y-83253241D01*
X201796862Y-83253241D02*
X201796862Y-83118553D01*
X201796862Y-83118553D02*
X201864205Y-82983866D01*
X201864205Y-82983866D02*
X201931549Y-82916523D01*
X201931549Y-82916523D02*
X202066236Y-82849179D01*
X202066236Y-82849179D02*
X202133579Y-82849179D01*
X203177404Y-83084882D02*
X203076388Y-83118553D01*
X203076388Y-83118553D02*
X203009045Y-83118553D01*
X203009045Y-83118553D02*
X202908030Y-83084882D01*
X202908030Y-83084882D02*
X202705999Y-82882851D01*
X202705999Y-82882851D02*
X202672327Y-82781836D01*
X202672327Y-82781836D02*
X202672327Y-82714492D01*
X202672327Y-82714492D02*
X202705999Y-82613477D01*
X202705999Y-82613477D02*
X202807014Y-82512462D01*
X202807014Y-82512462D02*
X202908030Y-82478790D01*
X202908030Y-82478790D02*
X202975373Y-82478790D01*
X202975373Y-82478790D02*
X203076388Y-82512462D01*
X203076388Y-82512462D02*
X203278419Y-82714492D01*
X203278419Y-82714492D02*
X203312091Y-82815508D01*
X203312091Y-82815508D02*
X203312091Y-82882851D01*
X203312091Y-82882851D02*
X203278419Y-82983866D01*
X203278419Y-82983866D02*
X203177404Y-83084882D01*
X203244747Y-82074729D02*
X203716152Y-82546134D01*
X203312091Y-82142073D02*
X203312091Y-82074729D01*
X203312091Y-82074729D02*
X203345762Y-81973714D01*
X203345762Y-81973714D02*
X203446778Y-81872699D01*
X203446778Y-81872699D02*
X203547793Y-81839027D01*
X203547793Y-81839027D02*
X203648808Y-81872699D01*
X203648808Y-81872699D02*
X204019197Y-82243088D01*
X203783495Y-81535981D02*
X204052869Y-81266607D01*
X203648808Y-81199264D02*
X204254900Y-81805355D01*
X204254900Y-81805355D02*
X204355915Y-81839027D01*
X204355915Y-81839027D02*
X204456930Y-81805355D01*
X204456930Y-81805355D02*
X204524274Y-81738012D01*
X204759976Y-81502309D02*
X204288572Y-81030904D01*
X204423259Y-81165591D02*
X204389587Y-81064576D01*
X204389587Y-81064576D02*
X204389587Y-80997233D01*
X204389587Y-80997233D02*
X204423259Y-80896217D01*
X204423259Y-80896217D02*
X204490602Y-80828874D01*
X205298725Y-80963561D02*
X205197709Y-80997232D01*
X205197709Y-80997232D02*
X205130366Y-80997232D01*
X205130366Y-80997232D02*
X205029351Y-80963561D01*
X205029351Y-80963561D02*
X204827320Y-80761530D01*
X204827320Y-80761530D02*
X204793648Y-80660515D01*
X204793648Y-80660515D02*
X204793648Y-80593171D01*
X204793648Y-80593171D02*
X204827320Y-80492156D01*
X204827320Y-80492156D02*
X204928335Y-80391141D01*
X204928335Y-80391141D02*
X205029351Y-80357469D01*
X205029351Y-80357469D02*
X205096694Y-80357469D01*
X205096694Y-80357469D02*
X205197709Y-80391141D01*
X205197709Y-80391141D02*
X205399740Y-80593171D01*
X205399740Y-80593171D02*
X205433412Y-80694187D01*
X205433412Y-80694187D02*
X205433412Y-80761530D01*
X205433412Y-80761530D02*
X205399740Y-80862545D01*
X205399740Y-80862545D02*
X205298725Y-80963561D01*
X205938488Y-80323797D02*
X205837473Y-80357469D01*
X205837473Y-80357469D02*
X205736457Y-80323797D01*
X205736457Y-80323797D02*
X205130366Y-79717706D01*
X206611924Y-78909583D02*
X206746611Y-78842240D01*
X206746611Y-78842240D02*
X206813954Y-78842240D01*
X206813954Y-78842240D02*
X206914969Y-78875912D01*
X206914969Y-78875912D02*
X207015985Y-78976927D01*
X207015985Y-78976927D02*
X207049656Y-79077942D01*
X207049656Y-79077942D02*
X207049656Y-79145286D01*
X207049656Y-79145286D02*
X207015985Y-79246301D01*
X207015985Y-79246301D02*
X206746611Y-79515675D01*
X206746611Y-79515675D02*
X206039504Y-78808568D01*
X206039504Y-78808568D02*
X206275206Y-78572866D01*
X206275206Y-78572866D02*
X206376221Y-78539194D01*
X206376221Y-78539194D02*
X206443565Y-78539194D01*
X206443565Y-78539194D02*
X206544580Y-78572866D01*
X206544580Y-78572866D02*
X206611924Y-78640209D01*
X206611924Y-78640209D02*
X206645595Y-78741225D01*
X206645595Y-78741225D02*
X206645595Y-78808568D01*
X206645595Y-78808568D02*
X206611924Y-78909583D01*
X206611924Y-78909583D02*
X206376221Y-79145286D01*
X207554733Y-78707553D02*
X207453717Y-78741225D01*
X207453717Y-78741225D02*
X207386374Y-78741225D01*
X207386374Y-78741225D02*
X207285359Y-78707553D01*
X207285359Y-78707553D02*
X207083328Y-78505522D01*
X207083328Y-78505522D02*
X207049656Y-78404507D01*
X207049656Y-78404507D02*
X207049656Y-78337164D01*
X207049656Y-78337164D02*
X207083328Y-78236148D01*
X207083328Y-78236148D02*
X207184343Y-78135133D01*
X207184343Y-78135133D02*
X207285359Y-78101461D01*
X207285359Y-78101461D02*
X207352702Y-78101461D01*
X207352702Y-78101461D02*
X207453717Y-78135133D01*
X207453717Y-78135133D02*
X207655748Y-78337164D01*
X207655748Y-78337164D02*
X207689420Y-78438179D01*
X207689420Y-78438179D02*
X207689420Y-78505522D01*
X207689420Y-78505522D02*
X207655748Y-78606538D01*
X207655748Y-78606538D02*
X207554733Y-78707553D01*
X208396526Y-77865759D02*
X208026137Y-77495370D01*
X208026137Y-77495370D02*
X207925122Y-77461698D01*
X207925122Y-77461698D02*
X207824107Y-77495370D01*
X207824107Y-77495370D02*
X207689420Y-77630057D01*
X207689420Y-77630057D02*
X207655748Y-77731072D01*
X208362855Y-77832087D02*
X208329183Y-77933102D01*
X208329183Y-77933102D02*
X208160824Y-78101461D01*
X208160824Y-78101461D02*
X208059809Y-78135133D01*
X208059809Y-78135133D02*
X207958794Y-78101461D01*
X207958794Y-78101461D02*
X207891450Y-78034118D01*
X207891450Y-78034118D02*
X207857778Y-77933102D01*
X207857778Y-77933102D02*
X207891450Y-77832087D01*
X207891450Y-77832087D02*
X208059809Y-77663728D01*
X208059809Y-77663728D02*
X208093481Y-77562713D01*
X208733244Y-77529041D02*
X208261839Y-77057637D01*
X208396526Y-77192324D02*
X208362855Y-77091309D01*
X208362855Y-77091309D02*
X208362855Y-77023965D01*
X208362855Y-77023965D02*
X208396526Y-76922950D01*
X208396526Y-76922950D02*
X208463870Y-76855606D01*
X209474023Y-76788263D02*
X208766916Y-76081156D01*
X209440351Y-76754591D02*
X209406679Y-76855606D01*
X209406679Y-76855606D02*
X209271992Y-76990293D01*
X209271992Y-76990293D02*
X209170977Y-77023965D01*
X209170977Y-77023965D02*
X209103634Y-77023965D01*
X209103634Y-77023965D02*
X209002618Y-76990293D01*
X209002618Y-76990293D02*
X208800588Y-76788263D01*
X208800588Y-76788263D02*
X208766916Y-76687247D01*
X208766916Y-76687247D02*
X208766916Y-76619904D01*
X208766916Y-76619904D02*
X208800588Y-76518889D01*
X208800588Y-76518889D02*
X208935275Y-76384202D01*
X208935275Y-76384202D02*
X209036290Y-76350530D01*
X209541367Y-75306705D02*
X210484176Y-75778110D01*
X210484176Y-75778110D02*
X210012771Y-74835301D01*
X211325969Y-74936316D02*
X210921908Y-75340377D01*
X211123939Y-75138346D02*
X210416832Y-74431240D01*
X210416832Y-74431240D02*
X210450504Y-74599598D01*
X210450504Y-74599598D02*
X210450504Y-74734285D01*
X210450504Y-74734285D02*
X210416832Y-74835301D01*
X203339325Y-84256955D02*
X203911745Y-84829375D01*
X203911745Y-84829375D02*
X203945416Y-84930391D01*
X203945416Y-84930391D02*
X203945416Y-84997734D01*
X203945416Y-84997734D02*
X203911745Y-85098749D01*
X203911745Y-85098749D02*
X203810729Y-85199765D01*
X203810729Y-85199765D02*
X203709714Y-85233436D01*
X203777058Y-84694688D02*
X203743386Y-84795704D01*
X203743386Y-84795704D02*
X203608699Y-84930391D01*
X203608699Y-84930391D02*
X203507684Y-84964062D01*
X203507684Y-84964062D02*
X203440340Y-84964062D01*
X203440340Y-84964062D02*
X203339325Y-84930391D01*
X203339325Y-84930391D02*
X203137294Y-84728360D01*
X203137294Y-84728360D02*
X203103623Y-84627345D01*
X203103623Y-84627345D02*
X203103623Y-84560001D01*
X203103623Y-84560001D02*
X203137294Y-84458986D01*
X203137294Y-84458986D02*
X203271981Y-84324299D01*
X203271981Y-84324299D02*
X203372997Y-84290627D01*
X204147447Y-84391642D02*
X203676042Y-83920238D01*
X203440340Y-83684536D02*
X203440340Y-83751879D01*
X203440340Y-83751879D02*
X203507684Y-83751879D01*
X203507684Y-83751879D02*
X203507684Y-83684536D01*
X203507684Y-83684536D02*
X203440340Y-83684536D01*
X203440340Y-83684536D02*
X203507684Y-83751879D01*
X203911744Y-83684536D02*
X204181118Y-83415162D01*
X203777057Y-83347818D02*
X204383149Y-83953910D01*
X204383149Y-83953910D02*
X204484164Y-83987582D01*
X204484164Y-83987582D02*
X204585179Y-83953910D01*
X204585179Y-83953910D02*
X204652523Y-83886567D01*
X204888225Y-83650864D02*
X204181119Y-82943757D01*
X205191271Y-83347818D02*
X204820882Y-82977429D01*
X204820882Y-82977429D02*
X204719867Y-82943757D01*
X204719867Y-82943757D02*
X204618851Y-82977429D01*
X204618851Y-82977429D02*
X204517836Y-83078444D01*
X204517836Y-83078444D02*
X204484164Y-83179459D01*
X204484164Y-83179459D02*
X204484164Y-83246803D01*
X205359630Y-82236650D02*
X205831035Y-82708055D01*
X205056584Y-82539696D02*
X205426973Y-82910085D01*
X205426973Y-82910085D02*
X205527989Y-82943757D01*
X205527989Y-82943757D02*
X205629004Y-82910085D01*
X205629004Y-82910085D02*
X205730019Y-82809070D01*
X205730019Y-82809070D02*
X205763691Y-82708055D01*
X205763691Y-82708055D02*
X205763691Y-82640711D01*
X206167752Y-82371337D02*
X205460645Y-81664230D01*
X205730019Y-81933604D02*
X205763691Y-81832589D01*
X205763691Y-81832589D02*
X205898378Y-81697902D01*
X205898378Y-81697902D02*
X205999393Y-81664230D01*
X205999393Y-81664230D02*
X206066737Y-81664230D01*
X206066737Y-81664230D02*
X206167752Y-81697902D01*
X206167752Y-81697902D02*
X206369783Y-81899933D01*
X206369783Y-81899933D02*
X206403454Y-82000948D01*
X206403454Y-82000948D02*
X206403454Y-82068291D01*
X206403454Y-82068291D02*
X206369783Y-82169307D01*
X206369783Y-82169307D02*
X206235096Y-82303994D01*
X206235096Y-82303994D02*
X206134080Y-82337665D01*
X206740172Y-81664230D02*
X206807515Y-81664230D01*
X206807515Y-81664230D02*
X206807515Y-81731574D01*
X206807515Y-81731574D02*
X206740172Y-81731574D01*
X206740172Y-81731574D02*
X206740172Y-81664230D01*
X206740172Y-81664230D02*
X206807515Y-81731574D01*
X207413607Y-81058139D02*
X207379935Y-81159154D01*
X207379935Y-81159154D02*
X207245248Y-81293841D01*
X207245248Y-81293841D02*
X207144233Y-81327513D01*
X207144233Y-81327513D02*
X207076889Y-81327513D01*
X207076889Y-81327513D02*
X206975874Y-81293841D01*
X206975874Y-81293841D02*
X206773843Y-81091811D01*
X206773843Y-81091811D02*
X206740172Y-80990796D01*
X206740172Y-80990796D02*
X206740172Y-80923452D01*
X206740172Y-80923452D02*
X206773843Y-80822437D01*
X206773843Y-80822437D02*
X206908530Y-80687750D01*
X206908530Y-80687750D02*
X207009546Y-80654078D01*
X207851339Y-80687750D02*
X207750324Y-80721422D01*
X207750324Y-80721422D02*
X207682981Y-80721422D01*
X207682981Y-80721422D02*
X207581965Y-80687750D01*
X207581965Y-80687750D02*
X207379935Y-80485719D01*
X207379935Y-80485719D02*
X207346263Y-80384704D01*
X207346263Y-80384704D02*
X207346263Y-80317361D01*
X207346263Y-80317361D02*
X207379935Y-80216345D01*
X207379935Y-80216345D02*
X207480950Y-80115330D01*
X207480950Y-80115330D02*
X207581965Y-80081658D01*
X207581965Y-80081658D02*
X207649309Y-80081658D01*
X207649309Y-80081658D02*
X207750324Y-80115330D01*
X207750324Y-80115330D02*
X207952355Y-80317361D01*
X207952355Y-80317361D02*
X207986026Y-80418376D01*
X207986026Y-80418376D02*
X207986026Y-80485719D01*
X207986026Y-80485719D02*
X207952355Y-80586735D01*
X207952355Y-80586735D02*
X207851339Y-80687750D01*
X208390088Y-80149002D02*
X207918683Y-79677597D01*
X207986027Y-79744941D02*
X207986027Y-79677597D01*
X207986027Y-79677597D02*
X208019698Y-79576582D01*
X208019698Y-79576582D02*
X208120714Y-79475567D01*
X208120714Y-79475567D02*
X208221729Y-79441895D01*
X208221729Y-79441895D02*
X208322744Y-79475567D01*
X208322744Y-79475567D02*
X208693133Y-79845956D01*
X208322744Y-79475567D02*
X208289072Y-79374551D01*
X208289072Y-79374551D02*
X208322744Y-79273536D01*
X208322744Y-79273536D02*
X208423759Y-79172521D01*
X208423759Y-79172521D02*
X208524775Y-79138849D01*
X208524775Y-79138849D02*
X208625790Y-79172521D01*
X208625790Y-79172521D02*
X208996179Y-79542910D01*
X209097194Y-77960338D02*
X209400240Y-79475567D01*
X210073675Y-78465414D02*
X209366568Y-77758308D01*
X209366568Y-77758308D02*
X210107347Y-78027682D01*
X210107347Y-78027682D02*
X209837973Y-77286903D01*
X209837973Y-77286903D02*
X210545079Y-77994010D01*
X211184843Y-77354247D02*
X210814453Y-76983857D01*
X210814453Y-76983857D02*
X210713438Y-76950186D01*
X210713438Y-76950186D02*
X210612423Y-76983857D01*
X210612423Y-76983857D02*
X210477736Y-77118544D01*
X210477736Y-77118544D02*
X210444064Y-77219560D01*
X211151171Y-77320575D02*
X211117499Y-77421590D01*
X211117499Y-77421590D02*
X210949140Y-77589949D01*
X210949140Y-77589949D02*
X210848125Y-77623621D01*
X210848125Y-77623621D02*
X210747110Y-77589949D01*
X210747110Y-77589949D02*
X210679766Y-77522606D01*
X210679766Y-77522606D02*
X210646095Y-77421590D01*
X210646095Y-77421590D02*
X210679766Y-77320575D01*
X210679766Y-77320575D02*
X210848125Y-77152216D01*
X210848125Y-77152216D02*
X210881797Y-77051201D01*
X211521560Y-77017529D02*
X211050156Y-76546125D01*
X211184843Y-76680812D02*
X211151171Y-76579796D01*
X211151171Y-76579796D02*
X211151171Y-76512453D01*
X211151171Y-76512453D02*
X211184843Y-76411438D01*
X211184843Y-76411438D02*
X211252186Y-76344094D01*
X212228667Y-76243079D02*
X212194995Y-76344094D01*
X212194995Y-76344094D02*
X212060308Y-76478781D01*
X212060308Y-76478781D02*
X211959293Y-76512453D01*
X211959293Y-76512453D02*
X211891950Y-76512453D01*
X211891950Y-76512453D02*
X211790934Y-76478781D01*
X211790934Y-76478781D02*
X211588904Y-76276750D01*
X211588904Y-76276750D02*
X211555232Y-76175735D01*
X211555232Y-76175735D02*
X211555232Y-76108392D01*
X211555232Y-76108392D02*
X211588904Y-76007376D01*
X211588904Y-76007376D02*
X211723591Y-75872689D01*
X211723591Y-75872689D02*
X211824606Y-75839018D01*
X212801087Y-75670659D02*
X212767415Y-75771674D01*
X212767415Y-75771674D02*
X212632728Y-75906361D01*
X212632728Y-75906361D02*
X212531713Y-75940033D01*
X212531713Y-75940033D02*
X212430698Y-75906361D01*
X212430698Y-75906361D02*
X212161324Y-75636987D01*
X212161324Y-75636987D02*
X212127652Y-75535972D01*
X212127652Y-75535972D02*
X212161324Y-75434956D01*
X212161324Y-75434956D02*
X212296011Y-75300269D01*
X212296011Y-75300269D02*
X212397026Y-75266598D01*
X212397026Y-75266598D02*
X212498041Y-75300269D01*
X212498041Y-75300269D02*
X212565385Y-75367613D01*
X212565385Y-75367613D02*
X212296011Y-75771674D01*
X213272492Y-75266598D02*
X213171476Y-75300269D01*
X213171476Y-75300269D02*
X213070461Y-75266598D01*
X213070461Y-75266598D02*
X212464370Y-74660506D01*
X213272492Y-74727849D02*
X213811240Y-74189101D01*
X214417331Y-74121758D02*
X213710225Y-73414651D01*
X214821392Y-73717697D02*
X214114286Y-73616682D01*
X214114286Y-73010590D02*
X214114286Y-73818712D01*
X215124438Y-73414651D02*
X214653034Y-72943247D01*
X214417331Y-72707544D02*
X214417331Y-72774888D01*
X214417331Y-72774888D02*
X214484675Y-72774888D01*
X214484675Y-72774888D02*
X214484675Y-72707544D01*
X214484675Y-72707544D02*
X214417331Y-72707544D01*
X214417331Y-72707544D02*
X214484675Y-72774888D01*
X214888736Y-72707545D02*
X215158110Y-72438171D01*
X214754049Y-72370827D02*
X215360140Y-72976919D01*
X215360140Y-72976919D02*
X215461155Y-73010590D01*
X215461155Y-73010590D02*
X215562171Y-72976919D01*
X215562171Y-72976919D02*
X215629514Y-72909575D01*
X215326469Y-72269812D02*
X215696858Y-71899422D01*
X215696858Y-71899422D02*
X215797873Y-72741216D01*
X215797873Y-72741216D02*
X216168262Y-72370827D01*
X216437637Y-72101453D02*
X215730530Y-71394346D01*
X215999904Y-71663720D02*
X216033576Y-71562705D01*
X216033576Y-71562705D02*
X216168263Y-71428018D01*
X216168263Y-71428018D02*
X216269278Y-71394346D01*
X216269278Y-71394346D02*
X216336621Y-71394346D01*
X216336621Y-71394346D02*
X216437637Y-71428018D01*
X216437637Y-71428018D02*
X216639667Y-71630048D01*
X216639667Y-71630048D02*
X216673339Y-71731063D01*
X216673339Y-71731063D02*
X216673339Y-71798407D01*
X216673339Y-71798407D02*
X216639667Y-71899422D01*
X216639667Y-71899422D02*
X216504980Y-72034109D01*
X216504980Y-72034109D02*
X216403965Y-72067781D01*
X217077400Y-71461689D02*
X216605995Y-70990285D01*
X216370293Y-70754583D02*
X216370293Y-70821926D01*
X216370293Y-70821926D02*
X216437637Y-70821926D01*
X216437637Y-70821926D02*
X216437637Y-70754583D01*
X216437637Y-70754583D02*
X216370293Y-70754583D01*
X216370293Y-70754583D02*
X216437637Y-70821926D01*
X217683491Y-70788255D02*
X217649819Y-70889270D01*
X217649819Y-70889270D02*
X217515132Y-71023957D01*
X217515132Y-71023957D02*
X217414117Y-71057629D01*
X217414117Y-71057629D02*
X217346774Y-71057629D01*
X217346774Y-71057629D02*
X217245758Y-71023957D01*
X217245758Y-71023957D02*
X217043728Y-70821926D01*
X217043728Y-70821926D02*
X217010056Y-70720911D01*
X217010056Y-70720911D02*
X217010056Y-70653568D01*
X217010056Y-70653568D02*
X217043728Y-70552552D01*
X217043728Y-70552552D02*
X217178415Y-70417865D01*
X217178415Y-70417865D02*
X217279430Y-70384194D01*
X218020209Y-70518881D02*
X217313102Y-69811774D01*
X218323255Y-70215835D02*
X217952865Y-69845446D01*
X217952865Y-69845446D02*
X217851850Y-69811774D01*
X217851850Y-69811774D02*
X217750835Y-69845446D01*
X217750835Y-69845446D02*
X217649820Y-69946461D01*
X217649820Y-69946461D02*
X217616148Y-70047476D01*
X217616148Y-70047476D02*
X217616148Y-70114820D01*
X218760987Y-69778102D02*
X218659972Y-69811774D01*
X218659972Y-69811774D02*
X218558957Y-69778102D01*
X218558957Y-69778102D02*
X217952865Y-69172010D01*
X219266064Y-69205682D02*
X219232392Y-69306697D01*
X219232392Y-69306697D02*
X219097705Y-69441384D01*
X219097705Y-69441384D02*
X218996690Y-69475056D01*
X218996690Y-69475056D02*
X218895675Y-69441384D01*
X218895675Y-69441384D02*
X218626301Y-69172010D01*
X218626301Y-69172010D02*
X218592629Y-69070995D01*
X218592629Y-69070995D02*
X218626301Y-68969980D01*
X218626301Y-68969980D02*
X218760988Y-68835293D01*
X218760988Y-68835293D02*
X218862003Y-68801621D01*
X218862003Y-68801621D02*
X218963018Y-68835293D01*
X218963018Y-68835293D02*
X219030362Y-68902636D01*
X219030362Y-68902636D02*
X218760988Y-69306697D01*
X219636453Y-68902636D02*
X219165049Y-68431231D01*
X219299736Y-68565918D02*
X219266064Y-68464903D01*
X219266064Y-68464903D02*
X219266064Y-68397560D01*
X219266064Y-68397560D02*
X219299736Y-68296544D01*
X219299736Y-68296544D02*
X219367079Y-68229201D01*
X204410383Y-84923953D02*
X204713429Y-86439182D01*
X204814444Y-84587235D02*
X204949131Y-84452548D01*
X204949131Y-84452548D02*
X205050147Y-84418877D01*
X205050147Y-84418877D02*
X205184834Y-84418877D01*
X205184834Y-84418877D02*
X205353192Y-84519892D01*
X205353192Y-84519892D02*
X205588895Y-84755594D01*
X205588895Y-84755594D02*
X205689910Y-84923953D01*
X205689910Y-84923953D02*
X205689910Y-85058640D01*
X205689910Y-85058640D02*
X205656238Y-85159655D01*
X205656238Y-85159655D02*
X205521551Y-85294342D01*
X205521551Y-85294342D02*
X205420536Y-85328014D01*
X205420536Y-85328014D02*
X205285849Y-85328014D01*
X205285849Y-85328014D02*
X205117490Y-85226999D01*
X205117490Y-85226999D02*
X204881788Y-84991297D01*
X204881788Y-84991297D02*
X204780773Y-84822938D01*
X204780773Y-84822938D02*
X204780773Y-84688251D01*
X204780773Y-84688251D02*
X204814444Y-84587235D01*
X205656238Y-84216846D02*
X206363345Y-84923953D01*
X205689910Y-84250518D02*
X205723582Y-84149503D01*
X205723582Y-84149503D02*
X205858269Y-84014816D01*
X205858269Y-84014816D02*
X205959284Y-83981144D01*
X205959284Y-83981144D02*
X206026627Y-83981144D01*
X206026627Y-83981144D02*
X206127643Y-84014816D01*
X206127643Y-84014816D02*
X206329673Y-84216846D01*
X206329673Y-84216846D02*
X206363345Y-84317862D01*
X206363345Y-84317862D02*
X206363345Y-84385205D01*
X206363345Y-84385205D02*
X206329673Y-84486220D01*
X206329673Y-84486220D02*
X206194986Y-84620907D01*
X206194986Y-84620907D02*
X206093971Y-84654579D01*
X207003108Y-83745442D02*
X206969436Y-83846457D01*
X206969436Y-83846457D02*
X206834749Y-83981144D01*
X206834749Y-83981144D02*
X206733734Y-84014816D01*
X206733734Y-84014816D02*
X206632719Y-83981144D01*
X206632719Y-83981144D02*
X206363345Y-83711770D01*
X206363345Y-83711770D02*
X206329673Y-83610755D01*
X206329673Y-83610755D02*
X206363345Y-83509739D01*
X206363345Y-83509739D02*
X206498032Y-83375052D01*
X206498032Y-83375052D02*
X206599047Y-83341381D01*
X206599047Y-83341381D02*
X206700062Y-83375052D01*
X206700062Y-83375052D02*
X206767406Y-83442396D01*
X206767406Y-83442396D02*
X206498032Y-83846457D01*
X206902093Y-82970991D02*
X207373498Y-83442396D01*
X206969437Y-83038335D02*
X206969437Y-82970991D01*
X206969437Y-82970991D02*
X207003108Y-82869976D01*
X207003108Y-82869976D02*
X207104124Y-82768961D01*
X207104124Y-82768961D02*
X207205139Y-82735289D01*
X207205139Y-82735289D02*
X207306154Y-82768961D01*
X207306154Y-82768961D02*
X207676543Y-83139350D01*
X208013261Y-82802632D02*
X207306154Y-82095526D01*
X207306154Y-82095526D02*
X208046933Y-82364900D01*
X208046933Y-82364900D02*
X207777559Y-81624121D01*
X207777559Y-81624121D02*
X208484665Y-82331228D01*
X208922398Y-81893495D02*
X208821383Y-81927167D01*
X208821383Y-81927167D02*
X208754039Y-81927167D01*
X208754039Y-81927167D02*
X208653024Y-81893495D01*
X208653024Y-81893495D02*
X208450994Y-81691465D01*
X208450994Y-81691465D02*
X208417322Y-81590450D01*
X208417322Y-81590450D02*
X208417322Y-81523106D01*
X208417322Y-81523106D02*
X208450994Y-81422091D01*
X208450994Y-81422091D02*
X208552009Y-81321076D01*
X208552009Y-81321076D02*
X208653024Y-81287404D01*
X208653024Y-81287404D02*
X208720368Y-81287404D01*
X208720368Y-81287404D02*
X208821383Y-81321076D01*
X208821383Y-81321076D02*
X209023413Y-81523106D01*
X209023413Y-81523106D02*
X209057085Y-81624121D01*
X209057085Y-81624121D02*
X209057085Y-81691465D01*
X209057085Y-81691465D02*
X209023413Y-81792480D01*
X209023413Y-81792480D02*
X208922398Y-81893495D01*
X208922398Y-80950686D02*
X209562161Y-81253732D01*
X209562161Y-81253732D02*
X209259116Y-80613969D01*
X210235597Y-80512953D02*
X210201925Y-80613968D01*
X210201925Y-80613968D02*
X210067238Y-80748655D01*
X210067238Y-80748655D02*
X209966223Y-80782327D01*
X209966223Y-80782327D02*
X209865207Y-80748655D01*
X209865207Y-80748655D02*
X209595833Y-80479281D01*
X209595833Y-80479281D02*
X209562162Y-80378266D01*
X209562162Y-80378266D02*
X209595833Y-80277251D01*
X209595833Y-80277251D02*
X209730520Y-80142564D01*
X209730520Y-80142564D02*
X209831536Y-80108892D01*
X209831536Y-80108892D02*
X209932551Y-80142564D01*
X209932551Y-80142564D02*
X209999894Y-80209907D01*
X209999894Y-80209907D02*
X209730520Y-80613968D01*
X210605986Y-80209907D02*
X210134581Y-79738503D01*
X210269268Y-79873190D02*
X210235597Y-79772175D01*
X210235597Y-79772175D02*
X210235597Y-79704831D01*
X210235597Y-79704831D02*
X210269268Y-79603816D01*
X210269268Y-79603816D02*
X210336612Y-79536472D01*
X211043719Y-79772174D02*
X210336612Y-79065068D01*
X210336612Y-79065068D02*
X210605986Y-78795694D01*
X210605986Y-78795694D02*
X210707001Y-78762022D01*
X210707001Y-78762022D02*
X210774345Y-78762022D01*
X210774345Y-78762022D02*
X210875360Y-78795694D01*
X210875360Y-78795694D02*
X210976376Y-78896709D01*
X210976376Y-78896709D02*
X211010047Y-78997724D01*
X211010047Y-78997724D02*
X211010047Y-79065068D01*
X211010047Y-79065068D02*
X210976376Y-79166083D01*
X210976376Y-79166083D02*
X210707001Y-79435457D01*
X211851841Y-78964052D02*
X211750826Y-78997724D01*
X211750826Y-78997724D02*
X211649811Y-78964052D01*
X211649811Y-78964052D02*
X211043719Y-78357961D01*
X212424261Y-78391632D02*
X212053872Y-78021243D01*
X212053872Y-78021243D02*
X211952857Y-77987571D01*
X211952857Y-77987571D02*
X211851841Y-78021243D01*
X211851841Y-78021243D02*
X211717154Y-78155930D01*
X211717154Y-78155930D02*
X211683483Y-78256945D01*
X212390589Y-78357960D02*
X212356918Y-78458976D01*
X212356918Y-78458976D02*
X212188559Y-78627334D01*
X212188559Y-78627334D02*
X212087544Y-78661006D01*
X212087544Y-78661006D02*
X211986528Y-78627334D01*
X211986528Y-78627334D02*
X211919185Y-78559991D01*
X211919185Y-78559991D02*
X211885513Y-78458976D01*
X211885513Y-78458976D02*
X211919185Y-78357960D01*
X211919185Y-78357960D02*
X212087544Y-78189602D01*
X212087544Y-78189602D02*
X212121215Y-78088586D01*
X212188559Y-77684525D02*
X212457933Y-77415151D01*
X212053872Y-77347808D02*
X212659963Y-77953899D01*
X212659963Y-77953899D02*
X212760979Y-77987571D01*
X212760979Y-77987571D02*
X212861994Y-77953899D01*
X212861994Y-77953899D02*
X212929337Y-77886556D01*
X212592620Y-77280464D02*
X212861994Y-77011090D01*
X213165040Y-77650853D02*
X212558949Y-77044762D01*
X212558949Y-77044762D02*
X212525277Y-76943746D01*
X212525277Y-76943746D02*
X212558949Y-76842731D01*
X212558949Y-76842731D02*
X212626292Y-76775388D01*
X213670117Y-77145777D02*
X213569101Y-77179448D01*
X213569101Y-77179448D02*
X213501758Y-77179448D01*
X213501758Y-77179448D02*
X213400743Y-77145777D01*
X213400743Y-77145777D02*
X213198712Y-76943746D01*
X213198712Y-76943746D02*
X213165040Y-76842731D01*
X213165040Y-76842731D02*
X213165040Y-76775387D01*
X213165040Y-76775387D02*
X213198712Y-76674372D01*
X213198712Y-76674372D02*
X213299727Y-76573357D01*
X213299727Y-76573357D02*
X213400743Y-76539685D01*
X213400743Y-76539685D02*
X213468086Y-76539685D01*
X213468086Y-76539685D02*
X213569101Y-76573357D01*
X213569101Y-76573357D02*
X213771132Y-76775387D01*
X213771132Y-76775387D02*
X213804804Y-76876403D01*
X213804804Y-76876403D02*
X213804804Y-76943746D01*
X213804804Y-76943746D02*
X213771132Y-77044761D01*
X213771132Y-77044761D02*
X213670117Y-77145777D01*
X214208865Y-76607029D02*
X213737460Y-76135624D01*
X213872147Y-76270311D02*
X213838475Y-76169296D01*
X213838475Y-76169296D02*
X213838475Y-76101952D01*
X213838475Y-76101952D02*
X213872147Y-76000937D01*
X213872147Y-76000937D02*
X213939491Y-75933594D01*
X214646598Y-76169296D02*
X214175193Y-75697891D01*
X214242537Y-75765235D02*
X214242537Y-75697891D01*
X214242537Y-75697891D02*
X214276208Y-75596876D01*
X214276208Y-75596876D02*
X214377224Y-75495861D01*
X214377224Y-75495861D02*
X214478239Y-75462189D01*
X214478239Y-75462189D02*
X214579254Y-75495861D01*
X214579254Y-75495861D02*
X214949644Y-75866250D01*
X214579254Y-75495861D02*
X214545583Y-75394845D01*
X214545583Y-75394845D02*
X214579254Y-75293830D01*
X214579254Y-75293830D02*
X214680270Y-75192815D01*
X214680270Y-75192815D02*
X214781285Y-75159143D01*
X214781285Y-75159143D02*
X214882300Y-75192815D01*
X214882300Y-75192815D02*
X215252689Y-75563204D01*
X200369819Y-96163220D02*
X199369819Y-96163220D01*
X199369819Y-96163220D02*
X200084104Y-95829887D01*
X200084104Y-95829887D02*
X199369819Y-95496554D01*
X199369819Y-95496554D02*
X200369819Y-95496554D01*
X200369819Y-94877506D02*
X200322200Y-94972744D01*
X200322200Y-94972744D02*
X200274580Y-95020363D01*
X200274580Y-95020363D02*
X200179342Y-95067982D01*
X200179342Y-95067982D02*
X199893628Y-95067982D01*
X199893628Y-95067982D02*
X199798390Y-95020363D01*
X199798390Y-95020363D02*
X199750771Y-94972744D01*
X199750771Y-94972744D02*
X199703152Y-94877506D01*
X199703152Y-94877506D02*
X199703152Y-94734649D01*
X199703152Y-94734649D02*
X199750771Y-94639411D01*
X199750771Y-94639411D02*
X199798390Y-94591792D01*
X199798390Y-94591792D02*
X199893628Y-94544173D01*
X199893628Y-94544173D02*
X200179342Y-94544173D01*
X200179342Y-94544173D02*
X200274580Y-94591792D01*
X200274580Y-94591792D02*
X200322200Y-94639411D01*
X200322200Y-94639411D02*
X200369819Y-94734649D01*
X200369819Y-94734649D02*
X200369819Y-94877506D01*
X200369819Y-93687030D02*
X199369819Y-93687030D01*
X200322200Y-93687030D02*
X200369819Y-93782268D01*
X200369819Y-93782268D02*
X200369819Y-93972744D01*
X200369819Y-93972744D02*
X200322200Y-94067982D01*
X200322200Y-94067982D02*
X200274580Y-94115601D01*
X200274580Y-94115601D02*
X200179342Y-94163220D01*
X200179342Y-94163220D02*
X199893628Y-94163220D01*
X199893628Y-94163220D02*
X199798390Y-94115601D01*
X199798390Y-94115601D02*
X199750771Y-94067982D01*
X199750771Y-94067982D02*
X199703152Y-93972744D01*
X199703152Y-93972744D02*
X199703152Y-93782268D01*
X199703152Y-93782268D02*
X199750771Y-93687030D01*
X199703152Y-92782268D02*
X200369819Y-92782268D01*
X199703152Y-93210839D02*
X200226961Y-93210839D01*
X200226961Y-93210839D02*
X200322200Y-93163220D01*
X200322200Y-93163220D02*
X200369819Y-93067982D01*
X200369819Y-93067982D02*
X200369819Y-92925125D01*
X200369819Y-92925125D02*
X200322200Y-92829887D01*
X200322200Y-92829887D02*
X200274580Y-92782268D01*
X200369819Y-92163220D02*
X200322200Y-92258458D01*
X200322200Y-92258458D02*
X200226961Y-92306077D01*
X200226961Y-92306077D02*
X199369819Y-92306077D01*
X200322200Y-91401315D02*
X200369819Y-91496553D01*
X200369819Y-91496553D02*
X200369819Y-91687029D01*
X200369819Y-91687029D02*
X200322200Y-91782267D01*
X200322200Y-91782267D02*
X200226961Y-91829886D01*
X200226961Y-91829886D02*
X199846009Y-91829886D01*
X199846009Y-91829886D02*
X199750771Y-91782267D01*
X199750771Y-91782267D02*
X199703152Y-91687029D01*
X199703152Y-91687029D02*
X199703152Y-91496553D01*
X199703152Y-91496553D02*
X199750771Y-91401315D01*
X199750771Y-91401315D02*
X199846009Y-91353696D01*
X199846009Y-91353696D02*
X199941247Y-91353696D01*
X199941247Y-91353696D02*
X200036485Y-91829886D01*
X200322200Y-90210838D02*
X200369819Y-90067981D01*
X200369819Y-90067981D02*
X200369819Y-89829886D01*
X200369819Y-89829886D02*
X200322200Y-89734648D01*
X200322200Y-89734648D02*
X200274580Y-89687029D01*
X200274580Y-89687029D02*
X200179342Y-89639410D01*
X200179342Y-89639410D02*
X200084104Y-89639410D01*
X200084104Y-89639410D02*
X199988866Y-89687029D01*
X199988866Y-89687029D02*
X199941247Y-89734648D01*
X199941247Y-89734648D02*
X199893628Y-89829886D01*
X199893628Y-89829886D02*
X199846009Y-90020362D01*
X199846009Y-90020362D02*
X199798390Y-90115600D01*
X199798390Y-90115600D02*
X199750771Y-90163219D01*
X199750771Y-90163219D02*
X199655533Y-90210838D01*
X199655533Y-90210838D02*
X199560295Y-90210838D01*
X199560295Y-90210838D02*
X199465057Y-90163219D01*
X199465057Y-90163219D02*
X199417438Y-90115600D01*
X199417438Y-90115600D02*
X199369819Y-90020362D01*
X199369819Y-90020362D02*
X199369819Y-89782267D01*
X199369819Y-89782267D02*
X199417438Y-89639410D01*
X200322200Y-88829886D02*
X200369819Y-88925124D01*
X200369819Y-88925124D02*
X200369819Y-89115600D01*
X200369819Y-89115600D02*
X200322200Y-89210838D01*
X200322200Y-89210838D02*
X200226961Y-89258457D01*
X200226961Y-89258457D02*
X199846009Y-89258457D01*
X199846009Y-89258457D02*
X199750771Y-89210838D01*
X199750771Y-89210838D02*
X199703152Y-89115600D01*
X199703152Y-89115600D02*
X199703152Y-88925124D01*
X199703152Y-88925124D02*
X199750771Y-88829886D01*
X199750771Y-88829886D02*
X199846009Y-88782267D01*
X199846009Y-88782267D02*
X199941247Y-88782267D01*
X199941247Y-88782267D02*
X200036485Y-89258457D01*
X200369819Y-88353695D02*
X199703152Y-88353695D01*
X199893628Y-88353695D02*
X199798390Y-88306076D01*
X199798390Y-88306076D02*
X199750771Y-88258457D01*
X199750771Y-88258457D02*
X199703152Y-88163219D01*
X199703152Y-88163219D02*
X199703152Y-88067981D01*
X200369819Y-87734647D02*
X199703152Y-87734647D01*
X199369819Y-87734647D02*
X199417438Y-87782266D01*
X199417438Y-87782266D02*
X199465057Y-87734647D01*
X199465057Y-87734647D02*
X199417438Y-87687028D01*
X199417438Y-87687028D02*
X199369819Y-87734647D01*
X199369819Y-87734647D02*
X199465057Y-87734647D01*
X200369819Y-86829886D02*
X199846009Y-86829886D01*
X199846009Y-86829886D02*
X199750771Y-86877505D01*
X199750771Y-86877505D02*
X199703152Y-86972743D01*
X199703152Y-86972743D02*
X199703152Y-87163219D01*
X199703152Y-87163219D02*
X199750771Y-87258457D01*
X200322200Y-86829886D02*
X200369819Y-86925124D01*
X200369819Y-86925124D02*
X200369819Y-87163219D01*
X200369819Y-87163219D02*
X200322200Y-87258457D01*
X200322200Y-87258457D02*
X200226961Y-87306076D01*
X200226961Y-87306076D02*
X200131723Y-87306076D01*
X200131723Y-87306076D02*
X200036485Y-87258457D01*
X200036485Y-87258457D02*
X199988866Y-87163219D01*
X199988866Y-87163219D02*
X199988866Y-86925124D01*
X199988866Y-86925124D02*
X199941247Y-86829886D01*
X200369819Y-86210838D02*
X200322200Y-86306076D01*
X200322200Y-86306076D02*
X200226961Y-86353695D01*
X200226961Y-86353695D02*
X199369819Y-86353695D01*
X199988866Y-85067980D02*
X199988866Y-84306076D01*
X200369819Y-84687028D02*
X199607914Y-84687028D01*
X146670112Y-36346009D02*
X146336779Y-36346009D01*
X146336779Y-36869819D02*
X146336779Y-35869819D01*
X146336779Y-35869819D02*
X146812969Y-35869819D01*
X147622493Y-36203152D02*
X147622493Y-36869819D01*
X147193922Y-36203152D02*
X147193922Y-36726961D01*
X147193922Y-36726961D02*
X147241541Y-36822200D01*
X147241541Y-36822200D02*
X147336779Y-36869819D01*
X147336779Y-36869819D02*
X147479636Y-36869819D01*
X147479636Y-36869819D02*
X147574874Y-36822200D01*
X147574874Y-36822200D02*
X147622493Y-36774580D01*
X148051065Y-36822200D02*
X148146303Y-36869819D01*
X148146303Y-36869819D02*
X148336779Y-36869819D01*
X148336779Y-36869819D02*
X148432017Y-36822200D01*
X148432017Y-36822200D02*
X148479636Y-36726961D01*
X148479636Y-36726961D02*
X148479636Y-36679342D01*
X148479636Y-36679342D02*
X148432017Y-36584104D01*
X148432017Y-36584104D02*
X148336779Y-36536485D01*
X148336779Y-36536485D02*
X148193922Y-36536485D01*
X148193922Y-36536485D02*
X148098684Y-36488866D01*
X148098684Y-36488866D02*
X148051065Y-36393628D01*
X148051065Y-36393628D02*
X148051065Y-36346009D01*
X148051065Y-36346009D02*
X148098684Y-36250771D01*
X148098684Y-36250771D02*
X148193922Y-36203152D01*
X148193922Y-36203152D02*
X148336779Y-36203152D01*
X148336779Y-36203152D02*
X148432017Y-36250771D01*
X149289160Y-36822200D02*
X149193922Y-36869819D01*
X149193922Y-36869819D02*
X149003446Y-36869819D01*
X149003446Y-36869819D02*
X148908208Y-36822200D01*
X148908208Y-36822200D02*
X148860589Y-36726961D01*
X148860589Y-36726961D02*
X148860589Y-36346009D01*
X148860589Y-36346009D02*
X148908208Y-36250771D01*
X148908208Y-36250771D02*
X149003446Y-36203152D01*
X149003446Y-36203152D02*
X149193922Y-36203152D01*
X149193922Y-36203152D02*
X149289160Y-36250771D01*
X149289160Y-36250771D02*
X149336779Y-36346009D01*
X149336779Y-36346009D02*
X149336779Y-36441247D01*
X149336779Y-36441247D02*
X148860589Y-36536485D01*
X151051065Y-36869819D02*
X150479637Y-36869819D01*
X150765351Y-36869819D02*
X150765351Y-35869819D01*
X150765351Y-35869819D02*
X150670113Y-36012676D01*
X150670113Y-36012676D02*
X150574875Y-36107914D01*
X150574875Y-36107914D02*
X150479637Y-36155533D01*
X151479637Y-36488866D02*
X152241542Y-36488866D01*
X152670113Y-35965057D02*
X152717732Y-35917438D01*
X152717732Y-35917438D02*
X152812970Y-35869819D01*
X152812970Y-35869819D02*
X153051065Y-35869819D01*
X153051065Y-35869819D02*
X153146303Y-35917438D01*
X153146303Y-35917438D02*
X153193922Y-35965057D01*
X153193922Y-35965057D02*
X153241541Y-36060295D01*
X153241541Y-36060295D02*
X153241541Y-36155533D01*
X153241541Y-36155533D02*
X153193922Y-36298390D01*
X153193922Y-36298390D02*
X152622494Y-36869819D01*
X152622494Y-36869819D02*
X153241541Y-36869819D01*
X153670113Y-36774580D02*
X153717732Y-36822200D01*
X153717732Y-36822200D02*
X153670113Y-36869819D01*
X153670113Y-36869819D02*
X153622494Y-36822200D01*
X153622494Y-36822200D02*
X153670113Y-36774580D01*
X153670113Y-36774580D02*
X153670113Y-36869819D01*
X153670113Y-36250771D02*
X153717732Y-36298390D01*
X153717732Y-36298390D02*
X153670113Y-36346009D01*
X153670113Y-36346009D02*
X153622494Y-36298390D01*
X153622494Y-36298390D02*
X153670113Y-36250771D01*
X153670113Y-36250771D02*
X153670113Y-36346009D01*
X200336779Y-37846009D02*
X200670112Y-37846009D01*
X200812969Y-38369819D02*
X200336779Y-38369819D01*
X200336779Y-38369819D02*
X200336779Y-37369819D01*
X200336779Y-37369819D02*
X200812969Y-37369819D01*
X201193922Y-38322200D02*
X201336779Y-38369819D01*
X201336779Y-38369819D02*
X201574874Y-38369819D01*
X201574874Y-38369819D02*
X201670112Y-38322200D01*
X201670112Y-38322200D02*
X201717731Y-38274580D01*
X201717731Y-38274580D02*
X201765350Y-38179342D01*
X201765350Y-38179342D02*
X201765350Y-38084104D01*
X201765350Y-38084104D02*
X201717731Y-37988866D01*
X201717731Y-37988866D02*
X201670112Y-37941247D01*
X201670112Y-37941247D02*
X201574874Y-37893628D01*
X201574874Y-37893628D02*
X201384398Y-37846009D01*
X201384398Y-37846009D02*
X201289160Y-37798390D01*
X201289160Y-37798390D02*
X201241541Y-37750771D01*
X201241541Y-37750771D02*
X201193922Y-37655533D01*
X201193922Y-37655533D02*
X201193922Y-37560295D01*
X201193922Y-37560295D02*
X201241541Y-37465057D01*
X201241541Y-37465057D02*
X201289160Y-37417438D01*
X201289160Y-37417438D02*
X201384398Y-37369819D01*
X201384398Y-37369819D02*
X201622493Y-37369819D01*
X201622493Y-37369819D02*
X201765350Y-37417438D01*
X202765350Y-38274580D02*
X202717731Y-38322200D01*
X202717731Y-38322200D02*
X202574874Y-38369819D01*
X202574874Y-38369819D02*
X202479636Y-38369819D01*
X202479636Y-38369819D02*
X202336779Y-38322200D01*
X202336779Y-38322200D02*
X202241541Y-38226961D01*
X202241541Y-38226961D02*
X202193922Y-38131723D01*
X202193922Y-38131723D02*
X202146303Y-37941247D01*
X202146303Y-37941247D02*
X202146303Y-37798390D01*
X202146303Y-37798390D02*
X202193922Y-37607914D01*
X202193922Y-37607914D02*
X202241541Y-37512676D01*
X202241541Y-37512676D02*
X202336779Y-37417438D01*
X202336779Y-37417438D02*
X202479636Y-37369819D01*
X202479636Y-37369819D02*
X202574874Y-37369819D01*
X202574874Y-37369819D02*
X202717731Y-37417438D01*
X202717731Y-37417438D02*
X202765350Y-37465057D01*
X203146303Y-37465057D02*
X203193922Y-37417438D01*
X203193922Y-37417438D02*
X203289160Y-37369819D01*
X203289160Y-37369819D02*
X203527255Y-37369819D01*
X203527255Y-37369819D02*
X203622493Y-37417438D01*
X203622493Y-37417438D02*
X203670112Y-37465057D01*
X203670112Y-37465057D02*
X203717731Y-37560295D01*
X203717731Y-37560295D02*
X203717731Y-37655533D01*
X203717731Y-37655533D02*
X203670112Y-37798390D01*
X203670112Y-37798390D02*
X203098684Y-38369819D01*
X203098684Y-38369819D02*
X203717731Y-38369819D01*
X204908208Y-37988866D02*
X205670113Y-37988866D01*
X205289160Y-38369819D02*
X205289160Y-37607914D01*
X134336779Y-54238866D02*
X135098684Y-54238866D01*
X134717731Y-54619819D02*
X134717731Y-53857914D01*
X137098684Y-53619819D02*
X137098684Y-54429342D01*
X137098684Y-54429342D02*
X137146303Y-54524580D01*
X137146303Y-54524580D02*
X137193922Y-54572200D01*
X137193922Y-54572200D02*
X137289160Y-54619819D01*
X137289160Y-54619819D02*
X137479636Y-54619819D01*
X137479636Y-54619819D02*
X137574874Y-54572200D01*
X137574874Y-54572200D02*
X137622493Y-54524580D01*
X137622493Y-54524580D02*
X137670112Y-54429342D01*
X137670112Y-54429342D02*
X137670112Y-53619819D01*
X138098684Y-54334104D02*
X138574874Y-54334104D01*
X138003446Y-54619819D02*
X138336779Y-53619819D01*
X138336779Y-53619819D02*
X138670112Y-54619819D01*
X139574874Y-54619819D02*
X139241541Y-54143628D01*
X139003446Y-54619819D02*
X139003446Y-53619819D01*
X139003446Y-53619819D02*
X139384398Y-53619819D01*
X139384398Y-53619819D02*
X139479636Y-53667438D01*
X139479636Y-53667438D02*
X139527255Y-53715057D01*
X139527255Y-53715057D02*
X139574874Y-53810295D01*
X139574874Y-53810295D02*
X139574874Y-53953152D01*
X139574874Y-53953152D02*
X139527255Y-54048390D01*
X139527255Y-54048390D02*
X139479636Y-54096009D01*
X139479636Y-54096009D02*
X139384398Y-54143628D01*
X139384398Y-54143628D02*
X139003446Y-54143628D01*
X139860589Y-53619819D02*
X140432017Y-53619819D01*
X140146303Y-54619819D02*
X140146303Y-53619819D01*
X140955827Y-53619819D02*
X141051065Y-53619819D01*
X141051065Y-53619819D02*
X141146303Y-53667438D01*
X141146303Y-53667438D02*
X141193922Y-53715057D01*
X141193922Y-53715057D02*
X141241541Y-53810295D01*
X141241541Y-53810295D02*
X141289160Y-54000771D01*
X141289160Y-54000771D02*
X141289160Y-54238866D01*
X141289160Y-54238866D02*
X141241541Y-54429342D01*
X141241541Y-54429342D02*
X141193922Y-54524580D01*
X141193922Y-54524580D02*
X141146303Y-54572200D01*
X141146303Y-54572200D02*
X141051065Y-54619819D01*
X141051065Y-54619819D02*
X140955827Y-54619819D01*
X140955827Y-54619819D02*
X140860589Y-54572200D01*
X140860589Y-54572200D02*
X140812970Y-54524580D01*
X140812970Y-54524580D02*
X140765351Y-54429342D01*
X140765351Y-54429342D02*
X140717732Y-54238866D01*
X140717732Y-54238866D02*
X140717732Y-54000771D01*
X140717732Y-54000771D02*
X140765351Y-53810295D01*
X140765351Y-53810295D02*
X140812970Y-53715057D01*
X140812970Y-53715057D02*
X140860589Y-53667438D01*
X140860589Y-53667438D02*
X140955827Y-53619819D01*
X211836779Y-37846009D02*
X212170112Y-37846009D01*
X212312969Y-38369819D02*
X211836779Y-38369819D01*
X211836779Y-38369819D02*
X211836779Y-37369819D01*
X211836779Y-37369819D02*
X212312969Y-37369819D01*
X212693922Y-38322200D02*
X212836779Y-38369819D01*
X212836779Y-38369819D02*
X213074874Y-38369819D01*
X213074874Y-38369819D02*
X213170112Y-38322200D01*
X213170112Y-38322200D02*
X213217731Y-38274580D01*
X213217731Y-38274580D02*
X213265350Y-38179342D01*
X213265350Y-38179342D02*
X213265350Y-38084104D01*
X213265350Y-38084104D02*
X213217731Y-37988866D01*
X213217731Y-37988866D02*
X213170112Y-37941247D01*
X213170112Y-37941247D02*
X213074874Y-37893628D01*
X213074874Y-37893628D02*
X212884398Y-37846009D01*
X212884398Y-37846009D02*
X212789160Y-37798390D01*
X212789160Y-37798390D02*
X212741541Y-37750771D01*
X212741541Y-37750771D02*
X212693922Y-37655533D01*
X212693922Y-37655533D02*
X212693922Y-37560295D01*
X212693922Y-37560295D02*
X212741541Y-37465057D01*
X212741541Y-37465057D02*
X212789160Y-37417438D01*
X212789160Y-37417438D02*
X212884398Y-37369819D01*
X212884398Y-37369819D02*
X213122493Y-37369819D01*
X213122493Y-37369819D02*
X213265350Y-37417438D01*
X214265350Y-38274580D02*
X214217731Y-38322200D01*
X214217731Y-38322200D02*
X214074874Y-38369819D01*
X214074874Y-38369819D02*
X213979636Y-38369819D01*
X213979636Y-38369819D02*
X213836779Y-38322200D01*
X213836779Y-38322200D02*
X213741541Y-38226961D01*
X213741541Y-38226961D02*
X213693922Y-38131723D01*
X213693922Y-38131723D02*
X213646303Y-37941247D01*
X213646303Y-37941247D02*
X213646303Y-37798390D01*
X213646303Y-37798390D02*
X213693922Y-37607914D01*
X213693922Y-37607914D02*
X213741541Y-37512676D01*
X213741541Y-37512676D02*
X213836779Y-37417438D01*
X213836779Y-37417438D02*
X213979636Y-37369819D01*
X213979636Y-37369819D02*
X214074874Y-37369819D01*
X214074874Y-37369819D02*
X214217731Y-37417438D01*
X214217731Y-37417438D02*
X214265350Y-37465057D01*
X215217731Y-38369819D02*
X214646303Y-38369819D01*
X214932017Y-38369819D02*
X214932017Y-37369819D01*
X214932017Y-37369819D02*
X214836779Y-37512676D01*
X214836779Y-37512676D02*
X214741541Y-37607914D01*
X214741541Y-37607914D02*
X214646303Y-37655533D01*
X216408208Y-37988866D02*
X217170113Y-37988866D01*
X216789160Y-38369819D02*
X216789160Y-37607914D01*
X165670112Y-36346009D02*
X165336779Y-36346009D01*
X165336779Y-36869819D02*
X165336779Y-35869819D01*
X165336779Y-35869819D02*
X165812969Y-35869819D01*
X166622493Y-36203152D02*
X166622493Y-36869819D01*
X166193922Y-36203152D02*
X166193922Y-36726961D01*
X166193922Y-36726961D02*
X166241541Y-36822200D01*
X166241541Y-36822200D02*
X166336779Y-36869819D01*
X166336779Y-36869819D02*
X166479636Y-36869819D01*
X166479636Y-36869819D02*
X166574874Y-36822200D01*
X166574874Y-36822200D02*
X166622493Y-36774580D01*
X167051065Y-36822200D02*
X167146303Y-36869819D01*
X167146303Y-36869819D02*
X167336779Y-36869819D01*
X167336779Y-36869819D02*
X167432017Y-36822200D01*
X167432017Y-36822200D02*
X167479636Y-36726961D01*
X167479636Y-36726961D02*
X167479636Y-36679342D01*
X167479636Y-36679342D02*
X167432017Y-36584104D01*
X167432017Y-36584104D02*
X167336779Y-36536485D01*
X167336779Y-36536485D02*
X167193922Y-36536485D01*
X167193922Y-36536485D02*
X167098684Y-36488866D01*
X167098684Y-36488866D02*
X167051065Y-36393628D01*
X167051065Y-36393628D02*
X167051065Y-36346009D01*
X167051065Y-36346009D02*
X167098684Y-36250771D01*
X167098684Y-36250771D02*
X167193922Y-36203152D01*
X167193922Y-36203152D02*
X167336779Y-36203152D01*
X167336779Y-36203152D02*
X167432017Y-36250771D01*
X168289160Y-36822200D02*
X168193922Y-36869819D01*
X168193922Y-36869819D02*
X168003446Y-36869819D01*
X168003446Y-36869819D02*
X167908208Y-36822200D01*
X167908208Y-36822200D02*
X167860589Y-36726961D01*
X167860589Y-36726961D02*
X167860589Y-36346009D01*
X167860589Y-36346009D02*
X167908208Y-36250771D01*
X167908208Y-36250771D02*
X168003446Y-36203152D01*
X168003446Y-36203152D02*
X168193922Y-36203152D01*
X168193922Y-36203152D02*
X168289160Y-36250771D01*
X168289160Y-36250771D02*
X168336779Y-36346009D01*
X168336779Y-36346009D02*
X168336779Y-36441247D01*
X168336779Y-36441247D02*
X167860589Y-36536485D01*
X169432018Y-35869819D02*
X170051065Y-35869819D01*
X170051065Y-35869819D02*
X169717732Y-36250771D01*
X169717732Y-36250771D02*
X169860589Y-36250771D01*
X169860589Y-36250771D02*
X169955827Y-36298390D01*
X169955827Y-36298390D02*
X170003446Y-36346009D01*
X170003446Y-36346009D02*
X170051065Y-36441247D01*
X170051065Y-36441247D02*
X170051065Y-36679342D01*
X170051065Y-36679342D02*
X170003446Y-36774580D01*
X170003446Y-36774580D02*
X169955827Y-36822200D01*
X169955827Y-36822200D02*
X169860589Y-36869819D01*
X169860589Y-36869819D02*
X169574875Y-36869819D01*
X169574875Y-36869819D02*
X169479637Y-36822200D01*
X169479637Y-36822200D02*
X169432018Y-36774580D01*
X170479637Y-36774580D02*
X170527256Y-36822200D01*
X170527256Y-36822200D02*
X170479637Y-36869819D01*
X170479637Y-36869819D02*
X170432018Y-36822200D01*
X170432018Y-36822200D02*
X170479637Y-36774580D01*
X170479637Y-36774580D02*
X170479637Y-36869819D01*
X170479637Y-36250771D02*
X170527256Y-36298390D01*
X170527256Y-36298390D02*
X170479637Y-36346009D01*
X170479637Y-36346009D02*
X170432018Y-36298390D01*
X170432018Y-36298390D02*
X170479637Y-36250771D01*
X170479637Y-36250771D02*
X170479637Y-36346009D01*
X178417438Y-90639411D02*
X178369819Y-90734649D01*
X178369819Y-90734649D02*
X178369819Y-90877506D01*
X178369819Y-90877506D02*
X178417438Y-91020363D01*
X178417438Y-91020363D02*
X178512676Y-91115601D01*
X178512676Y-91115601D02*
X178607914Y-91163220D01*
X178607914Y-91163220D02*
X178798390Y-91210839D01*
X178798390Y-91210839D02*
X178941247Y-91210839D01*
X178941247Y-91210839D02*
X179131723Y-91163220D01*
X179131723Y-91163220D02*
X179226961Y-91115601D01*
X179226961Y-91115601D02*
X179322200Y-91020363D01*
X179322200Y-91020363D02*
X179369819Y-90877506D01*
X179369819Y-90877506D02*
X179369819Y-90782268D01*
X179369819Y-90782268D02*
X179322200Y-90639411D01*
X179322200Y-90639411D02*
X179274580Y-90591792D01*
X179274580Y-90591792D02*
X178941247Y-90591792D01*
X178941247Y-90591792D02*
X178941247Y-90782268D01*
X179369819Y-90163220D02*
X178369819Y-90163220D01*
X178369819Y-90163220D02*
X178369819Y-89782268D01*
X178369819Y-89782268D02*
X178417438Y-89687030D01*
X178417438Y-89687030D02*
X178465057Y-89639411D01*
X178465057Y-89639411D02*
X178560295Y-89591792D01*
X178560295Y-89591792D02*
X178703152Y-89591792D01*
X178703152Y-89591792D02*
X178798390Y-89639411D01*
X178798390Y-89639411D02*
X178846009Y-89687030D01*
X178846009Y-89687030D02*
X178893628Y-89782268D01*
X178893628Y-89782268D02*
X178893628Y-90163220D01*
X179322200Y-89210839D02*
X179369819Y-89067982D01*
X179369819Y-89067982D02*
X179369819Y-88829887D01*
X179369819Y-88829887D02*
X179322200Y-88734649D01*
X179322200Y-88734649D02*
X179274580Y-88687030D01*
X179274580Y-88687030D02*
X179179342Y-88639411D01*
X179179342Y-88639411D02*
X179084104Y-88639411D01*
X179084104Y-88639411D02*
X178988866Y-88687030D01*
X178988866Y-88687030D02*
X178941247Y-88734649D01*
X178941247Y-88734649D02*
X178893628Y-88829887D01*
X178893628Y-88829887D02*
X178846009Y-89020363D01*
X178846009Y-89020363D02*
X178798390Y-89115601D01*
X178798390Y-89115601D02*
X178750771Y-89163220D01*
X178750771Y-89163220D02*
X178655533Y-89210839D01*
X178655533Y-89210839D02*
X178560295Y-89210839D01*
X178560295Y-89210839D02*
X178465057Y-89163220D01*
X178465057Y-89163220D02*
X178417438Y-89115601D01*
X178417438Y-89115601D02*
X178369819Y-89020363D01*
X178369819Y-89020363D02*
X178369819Y-88782268D01*
X178369819Y-88782268D02*
X178417438Y-88639411D01*
X178322200Y-87496554D02*
X179607914Y-88353696D01*
X179369819Y-87163220D02*
X178369819Y-87163220D01*
X178369819Y-87163220D02*
X179084104Y-86829887D01*
X179084104Y-86829887D02*
X178369819Y-86496554D01*
X178369819Y-86496554D02*
X179369819Y-86496554D01*
X179084104Y-86067982D02*
X179084104Y-85591792D01*
X179369819Y-86163220D02*
X178369819Y-85829887D01*
X178369819Y-85829887D02*
X179369819Y-85496554D01*
X178417438Y-84639411D02*
X178369819Y-84734649D01*
X178369819Y-84734649D02*
X178369819Y-84877506D01*
X178369819Y-84877506D02*
X178417438Y-85020363D01*
X178417438Y-85020363D02*
X178512676Y-85115601D01*
X178512676Y-85115601D02*
X178607914Y-85163220D01*
X178607914Y-85163220D02*
X178798390Y-85210839D01*
X178798390Y-85210839D02*
X178941247Y-85210839D01*
X178941247Y-85210839D02*
X179131723Y-85163220D01*
X179131723Y-85163220D02*
X179226961Y-85115601D01*
X179226961Y-85115601D02*
X179322200Y-85020363D01*
X179322200Y-85020363D02*
X179369819Y-84877506D01*
X179369819Y-84877506D02*
X179369819Y-84782268D01*
X179369819Y-84782268D02*
X179322200Y-84639411D01*
X179322200Y-84639411D02*
X179274580Y-84591792D01*
X179274580Y-84591792D02*
X178941247Y-84591792D01*
X178941247Y-84591792D02*
X178941247Y-84782268D01*
X178988866Y-82639410D02*
X178988866Y-81877506D01*
X185369819Y-89163220D02*
X184369819Y-89163220D01*
X184465057Y-88734649D02*
X184417438Y-88687030D01*
X184417438Y-88687030D02*
X184369819Y-88591792D01*
X184369819Y-88591792D02*
X184369819Y-88353697D01*
X184369819Y-88353697D02*
X184417438Y-88258459D01*
X184417438Y-88258459D02*
X184465057Y-88210840D01*
X184465057Y-88210840D02*
X184560295Y-88163221D01*
X184560295Y-88163221D02*
X184655533Y-88163221D01*
X184655533Y-88163221D02*
X184798390Y-88210840D01*
X184798390Y-88210840D02*
X185369819Y-88782268D01*
X185369819Y-88782268D02*
X185369819Y-88163221D01*
X185274580Y-87163221D02*
X185322200Y-87210840D01*
X185322200Y-87210840D02*
X185369819Y-87353697D01*
X185369819Y-87353697D02*
X185369819Y-87448935D01*
X185369819Y-87448935D02*
X185322200Y-87591792D01*
X185322200Y-87591792D02*
X185226961Y-87687030D01*
X185226961Y-87687030D02*
X185131723Y-87734649D01*
X185131723Y-87734649D02*
X184941247Y-87782268D01*
X184941247Y-87782268D02*
X184798390Y-87782268D01*
X184798390Y-87782268D02*
X184607914Y-87734649D01*
X184607914Y-87734649D02*
X184512676Y-87687030D01*
X184512676Y-87687030D02*
X184417438Y-87591792D01*
X184417438Y-87591792D02*
X184369819Y-87448935D01*
X184369819Y-87448935D02*
X184369819Y-87353697D01*
X184369819Y-87353697D02*
X184417438Y-87210840D01*
X184417438Y-87210840D02*
X184465057Y-87163221D01*
X184988866Y-85210839D02*
X184988866Y-84448935D01*
X185369819Y-84829887D02*
X184607914Y-84829887D01*
M02*
