%TF.GenerationSoftware,KiCad,Pcbnew,9.0.2*%
%TF.CreationDate,2025-05-21T10:53:00+02:00*%
%TF.ProjectId,OpenMoverPlatform,4f70656e-4d6f-4766-9572-506c6174666f,rev?*%
%TF.SameCoordinates,Original*%
%TF.FileFunction,Copper,L2,Bot*%
%TF.FilePolarity,Positive*%
%FSLAX46Y46*%
G04 Gerber Fmt 4.6, Leading zero omitted, Abs format (unit mm)*
G04 Created by KiCad (PCBNEW 9.0.2) date 2025-05-21 10:53:00*
%MOMM*%
%LPD*%
G01*
G04 APERTURE LIST*
G04 Aperture macros list*
%AMRoundRect*
0 Rectangle with rounded corners*
0 $1 Rounding radius*
0 $2 $3 $4 $5 $6 $7 $8 $9 X,Y pos of 4 corners*
0 Add a 4 corners polygon primitive as box body*
4,1,4,$2,$3,$4,$5,$6,$7,$8,$9,$2,$3,0*
0 Add four circle primitives for the rounded corners*
1,1,$1+$1,$2,$3*
1,1,$1+$1,$4,$5*
1,1,$1+$1,$6,$7*
1,1,$1+$1,$8,$9*
0 Add four rect primitives between the rounded corners*
20,1,$1+$1,$2,$3,$4,$5,0*
20,1,$1+$1,$4,$5,$6,$7,0*
20,1,$1+$1,$6,$7,$8,$9,0*
20,1,$1+$1,$8,$9,$2,$3,0*%
G04 Aperture macros list end*
%TA.AperFunction,ComponentPad*%
%ADD10R,1.700000X1.700000*%
%TD*%
%TA.AperFunction,ComponentPad*%
%ADD11O,1.700000X1.700000*%
%TD*%
%TA.AperFunction,ComponentPad*%
%ADD12RoundRect,1.500000X-1.500000X-1.500000X1.500000X-1.500000X1.500000X1.500000X-1.500000X1.500000X0*%
%TD*%
%TA.AperFunction,ComponentPad*%
%ADD13C,6.000000*%
%TD*%
%TA.AperFunction,ComponentPad*%
%ADD14O,5.500000X3.800000*%
%TD*%
%TA.AperFunction,ComponentPad*%
%ADD15O,5.300000X3.800000*%
%TD*%
%TA.AperFunction,ComponentPad*%
%ADD16C,1.700000*%
%TD*%
%TA.AperFunction,ComponentPad*%
%ADD17C,3.500000*%
%TD*%
%TA.AperFunction,ViaPad*%
%ADD18C,1.500000*%
%TD*%
%TA.AperFunction,Conductor*%
%ADD19C,0.500000*%
%TD*%
%TA.AperFunction,Conductor*%
%ADD20C,1.000000*%
%TD*%
%TA.AperFunction,Conductor*%
%ADD21C,5.000000*%
%TD*%
%TA.AperFunction,Conductor*%
%ADD22C,3.000000*%
%TD*%
G04 APERTURE END LIST*
D10*
%TO.P,J5,1,Pin_1*%
%TO.N,+3V3*%
X187500000Y-84700000D03*
D11*
%TO.P,J5,2,Pin_2*%
%TO.N,IO7_SDA*%
X187500000Y-87240000D03*
%TO.P,J5,3,Pin_3*%
%TO.N,IO6_SCL*%
X187500000Y-89780000D03*
%TO.P,J5,4,Pin_4*%
%TO.N,GND*%
X187500000Y-92320000D03*
%TD*%
D10*
%TO.P,JP4,1,A*%
%TO.N,GND*%
X128460000Y-90750000D03*
D11*
%TO.P,JP4,2,B*%
%TO.N,EN*%
X131000000Y-90750000D03*
%TD*%
D12*
%TO.P,J2,1,Pin_1*%
%TO.N,GND*%
X182800000Y-44000000D03*
D13*
%TO.P,J2,2,Pin_2*%
%TO.N,Net-(J2-Pin_2)*%
X190000000Y-44000000D03*
%TD*%
D10*
%TO.P,J7,1,Pin_1*%
%TO.N,unconnected-(J7-Pin_1-Pad1)*%
X205000000Y-35000000D03*
D11*
%TO.P,J7,2,Pin_2*%
%TO.N,GND*%
X202460000Y-35000000D03*
%TO.P,J7,3,Pin_3*%
%TO.N,IO13_PWM2*%
X199920000Y-35000000D03*
%TD*%
D10*
%TO.P,J6,1,Pin_1*%
%TO.N,unconnected-(J6-Pin_1-Pad1)*%
X216500000Y-35000000D03*
D11*
%TO.P,J6,2,Pin_2*%
%TO.N,GND*%
X213960000Y-35000000D03*
%TO.P,J6,3,Pin_3*%
%TO.N,IO12_PWM1*%
X211420000Y-35000000D03*
%TD*%
D14*
%TO.P,F1,1*%
%TO.N,Net-(J1-Pin_2)*%
X160000000Y-48900000D03*
D15*
%TO.P,F1,2*%
%TO.N,Net-(J3-Pin_2)*%
X168000000Y-48900000D03*
%TD*%
D14*
%TO.P,F3,1*%
%TO.N,Net-(J1-Pin_2)*%
X160040000Y-56600000D03*
D15*
%TO.P,F3,2*%
%TO.N,+BATT*%
X168040000Y-56600000D03*
%TD*%
D10*
%TO.P,J11,1,VBUS*%
%TO.N,unconnected-(J11-VBUS-Pad1)*%
X152600000Y-94975000D03*
D16*
%TO.P,J11,2,D-*%
%TO.N,IO19_D-*%
X150100000Y-94975000D03*
%TO.P,J11,3,D+*%
%TO.N,IO20_D+*%
X150100000Y-96975000D03*
%TO.P,J11,4,GND*%
%TO.N,GND*%
X152600000Y-96975000D03*
D17*
%TO.P,J11,5,Shield*%
X157370000Y-99685000D03*
X145330000Y-99685000D03*
%TD*%
D10*
%TO.P,JP5,1,A*%
%TO.N,GND*%
X128460000Y-95400000D03*
D11*
%TO.P,JP5,2,B*%
%TO.N,IO0*%
X131000000Y-95400000D03*
%TD*%
D10*
%TO.P,J8,1,Pin_1*%
%TO.N,+3V3*%
X182000000Y-84700000D03*
D11*
%TO.P,J8,2,Pin_2*%
%TO.N,IO7_SDA*%
X182000000Y-87240000D03*
%TO.P,J8,3,Pin_3*%
%TO.N,IO6_SCL*%
X182000000Y-89780000D03*
%TO.P,J8,4,Pin_4*%
%TO.N,GND*%
X182000000Y-92320000D03*
%TD*%
D12*
%TO.P,J1,1,Pin_1*%
%TO.N,GND*%
X143800000Y-44000000D03*
D13*
%TO.P,J1,2,Pin_2*%
%TO.N,Net-(J1-Pin_2)*%
X151000000Y-44000000D03*
%TD*%
D10*
%TO.P,J4,1,Pin_1*%
%TO.N,GND*%
X175500000Y-81920000D03*
D11*
%TO.P,J4,2,Pin_2*%
%TO.N,IO16_RXGPS*%
X175500000Y-84460000D03*
%TO.P,J4,3,Pin_3*%
%TO.N,IO15_TXGPS*%
X175500000Y-87000000D03*
%TO.P,J4,4,Pin_4*%
%TO.N,+3V3*%
X175500000Y-89540000D03*
%TO.P,J4,5,Pin_5*%
%TO.N,IO7_SDA*%
X175500000Y-92080000D03*
%TO.P,J4,6,Pin_6*%
%TO.N,IO6_SCL*%
X175500000Y-94620000D03*
%TD*%
D10*
%TO.P,J10,1,Pin_1*%
%TO.N,+3V3*%
X134500000Y-57250000D03*
D11*
%TO.P,J10,2,Pin_2*%
%TO.N,TX0*%
X137040000Y-57250000D03*
%TO.P,J10,3,Pin_3*%
%TO.N,RX0*%
X139580000Y-57250000D03*
%TO.P,J10,4,Pin_4*%
%TO.N,GND*%
X142120000Y-57250000D03*
%TD*%
D10*
%TO.P,J9,1,Pin_1*%
%TO.N,+3V3*%
X197000000Y-84740000D03*
D11*
%TO.P,J9,2,Pin_2*%
%TO.N,IO17_TXMOD*%
X197000000Y-87280000D03*
%TO.P,J9,3,Pin_3*%
%TO.N,IO18_RXMOD*%
X197000000Y-89820000D03*
%TO.P,J9,4,Pin_4*%
%TO.N,GND*%
X197000000Y-92360000D03*
%TD*%
D10*
%TO.P,JP3,1,A*%
%TO.N,Net-(JP1-A)*%
X218500000Y-56960000D03*
D11*
%TO.P,JP3,2,B*%
%TO.N,+3V3*%
X218500000Y-59500000D03*
%TD*%
D14*
%TO.P,F2,1*%
%TO.N,Net-(J1-Pin_2)*%
X160000000Y-41300000D03*
D15*
%TO.P,F2,2*%
%TO.N,Net-(J2-Pin_2)*%
X168000000Y-41300000D03*
%TD*%
D12*
%TO.P,J3,1,Pin_1*%
%TO.N,GND*%
X201400000Y-44000000D03*
D13*
%TO.P,J3,2,Pin_2*%
%TO.N,Net-(J3-Pin_2)*%
X208600000Y-44000000D03*
%TD*%
D18*
%TO.N,GND*%
X178150000Y-39350000D03*
X197500000Y-72000000D03*
X137250000Y-70250000D03*
X174500000Y-74000000D03*
X128000000Y-86750000D03*
X194500000Y-92500000D03*
%TO.N,+BATT*%
X172500000Y-62500000D03*
%TO.N,Net-(JP1-A)*%
X213000000Y-55500000D03*
X178500000Y-68000000D03*
%TO.N,+3V3*%
X131750000Y-60000000D03*
X171500000Y-89500000D03*
X171500000Y-96500000D03*
X215000000Y-62500000D03*
X139000000Y-96250000D03*
X130000000Y-85592537D03*
%TO.N,IO16_RXGPS*%
X138069764Y-83843298D03*
%TO.N,IO12_PWM1*%
X149750000Y-68250000D03*
X209500000Y-33000000D03*
X149750000Y-73250000D03*
%TO.N,IO13_PWM2*%
X197500000Y-34000000D03*
X152250000Y-68000000D03*
X152250000Y-73250000D03*
%TO.N,Net-(D1-K)*%
X189500000Y-64000000D03*
X181000000Y-68000000D03*
%TO.N,EN*%
X133500000Y-92000000D03*
%TO.N,TX0*%
X135500000Y-59750000D03*
%TO.N,RX0*%
X137750000Y-60750000D03*
%TO.N,IO0*%
X135750000Y-96500000D03*
X147250000Y-62500000D03*
X139619764Y-85025591D03*
%TO.N,IO15_TXGPS*%
X136069241Y-84519238D03*
%TO.N,IO17_TXMOD*%
X166525000Y-83300000D03*
X190500000Y-89500000D03*
X142315296Y-85050000D03*
%TO.N,IO18_RXMOD*%
X167675000Y-81850000D03*
X192500000Y-90500000D03*
X142155692Y-83200000D03*
%TO.N,IO6_SCL*%
X132532897Y-83960031D03*
%TO.N,IO7_SDA*%
X134250000Y-84500000D03*
%TO.N,IO20_D+*%
X143150000Y-95775000D03*
%TO.N,IO19_D-*%
X143150000Y-93750000D03*
%TD*%
D19*
%TO.N,GND*%
X128460000Y-95400000D02*
X128460000Y-90750000D01*
X145330000Y-99685000D02*
X151615000Y-99685000D01*
D20*
X214000000Y-37500000D02*
X213960000Y-37460000D01*
D19*
X132745000Y-99685000D02*
X128460000Y-95400000D01*
D21*
X191900000Y-34500000D02*
X195950000Y-38550000D01*
D19*
X128460000Y-87210000D02*
X128000000Y-86750000D01*
D20*
X176500000Y-72000000D02*
X174500000Y-74000000D01*
X194500000Y-92360000D02*
X187540000Y-92360000D01*
X203500000Y-38500000D02*
X213000000Y-38500000D01*
D21*
X173300000Y-34500000D02*
X182800000Y-44000000D01*
D20*
X197500000Y-72000000D02*
X176500000Y-72000000D01*
X143800000Y-63700000D02*
X143800000Y-55570000D01*
X202540000Y-37540000D02*
X203500000Y-38500000D01*
X143800000Y-55570000D02*
X143800000Y-44000000D01*
D19*
X128460000Y-90750000D02*
X128460000Y-87210000D01*
D20*
X202460000Y-37540000D02*
X201450000Y-38550000D01*
X213960000Y-37460000D02*
X213960000Y-35000000D01*
D21*
X195950000Y-38550000D02*
X201400000Y-44000000D01*
D19*
X151615000Y-99685000D02*
X152600000Y-98700000D01*
D20*
X213000000Y-38500000D02*
X214000000Y-37500000D01*
X194500000Y-92500000D02*
X197000000Y-92360000D01*
X175500000Y-75000000D02*
X174500000Y-74000000D01*
X202460000Y-37540000D02*
X202540000Y-37540000D01*
D19*
X145330000Y-99685000D02*
X132745000Y-99685000D01*
D21*
X143800000Y-44000000D02*
X143800000Y-37700000D01*
D19*
X153585000Y-99685000D02*
X152600000Y-98700000D01*
X152600000Y-98700000D02*
X152600000Y-96975000D01*
D20*
X202460000Y-35000000D02*
X202460000Y-37540000D01*
X201450000Y-38550000D02*
X195950000Y-38550000D01*
X175500000Y-81920000D02*
X175500000Y-75000000D01*
X187540000Y-92360000D02*
X187500000Y-92320000D01*
X137250000Y-70250000D02*
X143800000Y-63700000D01*
X142120000Y-57250000D02*
X143800000Y-55570000D01*
X194500000Y-92360000D02*
X194500000Y-92500000D01*
D21*
X143800000Y-37700000D02*
X147000000Y-34500000D01*
X173300000Y-34500000D02*
X191900000Y-34500000D01*
X147000000Y-34500000D02*
X173300000Y-34500000D01*
D19*
X157370000Y-99685000D02*
X153585000Y-99685000D01*
D20*
X182000000Y-92320000D02*
X187500000Y-92320000D01*
D21*
%TO.N,Net-(J1-Pin_2)*%
X151000000Y-44000000D02*
X155000000Y-44000000D01*
X160000000Y-48900000D02*
X155100000Y-44000000D01*
X157300000Y-44000000D02*
X160000000Y-41300000D01*
X160000000Y-56560000D02*
X160040000Y-56600000D01*
X155000000Y-44000000D02*
X157300000Y-44000000D01*
X160000000Y-44700000D02*
X151700000Y-44700000D01*
X160000000Y-48900000D02*
X160000000Y-52300000D01*
X160000000Y-44700000D02*
X160000000Y-48900000D01*
X160000000Y-52300000D02*
X160000000Y-56560000D01*
X160000000Y-41300000D02*
X160000000Y-44700000D01*
X155100000Y-44000000D02*
X155000000Y-44000000D01*
X151700000Y-44700000D02*
X151000000Y-44000000D01*
D22*
%TO.N,Net-(J2-Pin_2)*%
X178930000Y-49810000D02*
X185980000Y-49810000D01*
X185980000Y-49810000D02*
X190000000Y-45790000D01*
X190000000Y-45790000D02*
X190000000Y-44000000D01*
X168000000Y-41300000D02*
X170420000Y-41300000D01*
X170420000Y-41300000D02*
X178930000Y-49810000D01*
%TO.N,Net-(J3-Pin_2)*%
X208600000Y-48242640D02*
X208600000Y-44000000D01*
X169900000Y-48900000D02*
X176750000Y-55750000D01*
X176750000Y-55750000D02*
X201092640Y-55750000D01*
X201092640Y-55750000D02*
X208600000Y-48242640D01*
X168000000Y-48900000D02*
X169900000Y-48900000D01*
%TO.N,+BATT*%
X172460000Y-62500000D02*
X172500000Y-62500000D01*
X168040000Y-56600000D02*
X168040000Y-58080000D01*
X168040000Y-58080000D02*
X172460000Y-62500000D01*
D20*
%TO.N,Net-(JP1-A)*%
X178500000Y-68000000D02*
X180500000Y-66000000D01*
X214460000Y-56960000D02*
X213000000Y-55500000D01*
X189000000Y-61500000D02*
X207000000Y-61500000D01*
X218500000Y-56960000D02*
X214460000Y-56960000D01*
X207000000Y-61500000D02*
X213000000Y-55500000D01*
X184500000Y-66000000D02*
X189000000Y-61500000D01*
X180500000Y-66000000D02*
X184500000Y-66000000D01*
%TO.N,+3V3*%
X130592537Y-85592537D02*
X130000000Y-85592537D01*
X165623044Y-95800000D02*
X161923044Y-92100000D01*
X187540000Y-84740000D02*
X187500000Y-84700000D01*
X138700000Y-95950000D02*
X139000000Y-96250000D01*
X161923044Y-92100000D02*
X140300000Y-92100000D01*
X175500000Y-89540000D02*
X176460000Y-89540000D01*
X175500000Y-89540000D02*
X171540000Y-89540000D01*
X197000000Y-84740000D02*
X192500000Y-84740000D01*
X138700000Y-93700000D02*
X138700000Y-95950000D01*
X130000000Y-85592537D02*
X129250000Y-84842537D01*
X171500000Y-96500000D02*
X170800000Y-95800000D01*
X129250000Y-62500000D02*
X131750000Y-60000000D01*
X170800000Y-95800000D02*
X165623044Y-95800000D01*
X215000000Y-62500000D02*
X197000000Y-80500000D01*
X215500000Y-62500000D02*
X215000000Y-62500000D01*
X218500000Y-59500000D02*
X215500000Y-62500000D01*
X140300000Y-92100000D02*
X138700000Y-93700000D01*
X192500000Y-84740000D02*
X187540000Y-84740000D01*
X129250000Y-84842537D02*
X129250000Y-62500000D01*
X176460000Y-89540000D02*
X181300000Y-84700000D01*
X182000000Y-84700000D02*
X187500000Y-84700000D01*
X171540000Y-89540000D02*
X171500000Y-89500000D01*
X131750000Y-60000000D02*
X134500000Y-57250000D01*
X138700000Y-93700000D02*
X130592537Y-85592537D01*
X197000000Y-80500000D02*
X197000000Y-84740000D01*
X139125000Y-96375000D02*
X139000000Y-96250000D01*
X181300000Y-84700000D02*
X182000000Y-84700000D01*
%TO.N,IO16_RXGPS*%
X138069764Y-85714438D02*
X139254326Y-86899000D01*
X168363044Y-84460000D02*
X175500000Y-84460000D01*
X167124044Y-85699000D02*
X168363044Y-84460000D01*
X165922630Y-86899000D02*
X167122630Y-85699000D01*
X138069764Y-83843298D02*
X138069764Y-85714438D01*
X167122630Y-85699000D02*
X167124044Y-85699000D01*
X139254326Y-86899000D02*
X165922630Y-86899000D01*
%TO.N,IO12_PWM1*%
X209420000Y-33000000D02*
X209500000Y-33080000D01*
X149750000Y-68250000D02*
X149750000Y-73250000D01*
X211420000Y-35000000D02*
X209500000Y-33080000D01*
X209500000Y-33080000D02*
X209500000Y-33000000D01*
X209500000Y-33000000D02*
X209420000Y-33000000D01*
%TO.N,IO13_PWM2*%
X198500000Y-35000000D02*
X197500000Y-34000000D01*
X152250000Y-68000000D02*
X152250000Y-73250000D01*
X199920000Y-35000000D02*
X198500000Y-35000000D01*
X152250000Y-72250000D02*
X152250000Y-72000000D01*
X152250000Y-73250000D02*
X152250000Y-72250000D01*
%TO.N,Net-(D1-K)*%
X185500000Y-68000000D02*
X189500000Y-64000000D01*
X181000000Y-68000000D02*
X185500000Y-68000000D01*
D19*
%TO.N,EN*%
X132250000Y-92000000D02*
X133500000Y-92000000D01*
X131000000Y-90750000D02*
X132250000Y-92000000D01*
D20*
%TO.N,TX0*%
X135500000Y-60000000D02*
X135750000Y-59750000D01*
X137040000Y-57250000D02*
X137040000Y-58460000D01*
X135750000Y-59750000D02*
X135500000Y-59750000D01*
X137040000Y-58460000D02*
X135750000Y-59750000D01*
X135500000Y-59750000D02*
X135500000Y-60000000D01*
%TO.N,RX0*%
X139580000Y-58920000D02*
X137750000Y-60750000D01*
X139580000Y-57250000D02*
X139580000Y-58920000D01*
D19*
%TO.N,IO0*%
X139619764Y-70130236D02*
X147250000Y-62500000D01*
X139619764Y-85025591D02*
X139619764Y-70130236D01*
X134650000Y-95400000D02*
X131000000Y-95400000D01*
X147250000Y-62500000D02*
X147000000Y-62750000D01*
X135750000Y-96500000D02*
X134650000Y-95400000D01*
D20*
%TO.N,IO15_TXGPS*%
X136069241Y-84519238D02*
X136500000Y-84949997D01*
X167661522Y-87000000D02*
X175500000Y-87000000D01*
X136500000Y-84949997D02*
X136500000Y-85984566D01*
X136500000Y-85984566D02*
X138715434Y-88200000D01*
X166461522Y-88200000D02*
X167661522Y-87000000D01*
X138715434Y-88200000D02*
X166461522Y-88200000D01*
%TO.N,IO17_TXMOD*%
X192720000Y-87280000D02*
X190500000Y-89500000D01*
X197000000Y-87280000D02*
X192720000Y-87280000D01*
D19*
X163977000Y-85848000D02*
X166525000Y-83300000D01*
X143050000Y-85050000D02*
X143848000Y-85848000D01*
X143848000Y-85848000D02*
X163977000Y-85848000D01*
D20*
X190500000Y-89500000D02*
X190750000Y-89250000D01*
D19*
X142315296Y-85050000D02*
X143050000Y-85050000D01*
D20*
%TO.N,IO18_RXMOD*%
X197000000Y-89820000D02*
X193180000Y-89820000D01*
D19*
X163645214Y-85047000D02*
X165224000Y-83468214D01*
X165224000Y-82761108D02*
X165986108Y-81999000D01*
X143100210Y-83200000D02*
X144947210Y-85047000D01*
D20*
X193180000Y-89820000D02*
X192500000Y-90500000D01*
D19*
X165986108Y-81999000D02*
X167063892Y-81999000D01*
X165224000Y-83468214D02*
X165224000Y-82761108D01*
X144947210Y-85047000D02*
X163645214Y-85047000D01*
X142155692Y-83200000D02*
X143100210Y-83200000D01*
X167294946Y-82230054D02*
X167675000Y-81850000D01*
X167063892Y-81999000D02*
X167294946Y-82230054D01*
D20*
%TO.N,IO6_SCL*%
X132532897Y-83960031D02*
X132532897Y-85694419D01*
X179500000Y-90500000D02*
X180220000Y-89780000D01*
X179500000Y-93500000D02*
X179500000Y-90500000D01*
X178380000Y-94620000D02*
X179500000Y-93500000D01*
X166161522Y-94500000D02*
X175380000Y-94500000D01*
X180220000Y-89780000D02*
X182000000Y-89780000D01*
X175380000Y-94500000D02*
X175500000Y-94620000D01*
X175500000Y-94620000D02*
X178380000Y-94620000D01*
X132532897Y-85694419D02*
X137638478Y-90800000D01*
X137638478Y-90800000D02*
X162461522Y-90800000D01*
D19*
X182000000Y-89780000D02*
X187500000Y-89780000D01*
D20*
X162461522Y-90800000D02*
X166161522Y-94500000D01*
%TO.N,IO7_SDA*%
X180797919Y-87240000D02*
X182000000Y-87240000D01*
X177420000Y-92080000D02*
X178200000Y-91300000D01*
D19*
X182000000Y-87240000D02*
X187500000Y-87240000D01*
D20*
X138176956Y-89500000D02*
X134250000Y-85573044D01*
X134250000Y-85573044D02*
X134250000Y-84500000D01*
X178200000Y-89837919D02*
X180797919Y-87240000D01*
X175500000Y-92080000D02*
X165580000Y-92080000D01*
X165580000Y-92080000D02*
X163000000Y-89500000D01*
X178200000Y-91300000D02*
X178200000Y-89837919D01*
X175500000Y-92080000D02*
X177420000Y-92080000D01*
X163000000Y-89500000D02*
X138176956Y-89500000D01*
D19*
%TO.N,IO20_D+*%
X144875000Y-96975000D02*
X143675000Y-95775000D01*
X150100000Y-96975000D02*
X144875000Y-96975000D01*
X143675000Y-95775000D02*
X143150000Y-95775000D01*
%TO.N,IO19_D-*%
X145300000Y-94975000D02*
X144075000Y-93750000D01*
X150100000Y-94975000D02*
X145300000Y-94975000D01*
X144075000Y-93750000D02*
X143150000Y-93750000D01*
%TD*%
M02*
